<?xml version="1.0" encoding="UTF-8" standalone="no"?>
<svg
   width="1024"
   height="1024"
   viewBox="0 0 1024 1024"
   version="1.1"
   id="svg64"
   sodipodi:docname="clock.svg"
   inkscape:version="1.4.3 (0d15f75042, 2025-12-25)"
   xmlns:inkscape="http://www.inkscape.org/namespaces/inkscape"
   xmlns:sodipodi="http://sodipodi.sourceforge.net/DTD/sodipodi-0.dtd"
   xmlns="http://www.w3.org/2000/svg"
   xmlns:svg="http://www.w3.org/2000/svg">
  <defs
     id="defs64" />
  <sodipodi:namedview
     id="namedview64"
     pagecolor="#ffffff"
     bordercolor="#000000"
     borderopacity="0.25"
     inkscape:showpageshadow="2"
     inkscape:pageopacity="0.0"
     inkscape:pagecheckerboard="0"
     inkscape:deskcolor="#d1d1d1"
     inkscape:zoom="1.0566406"
     inkscape:cx="512.00001"
     inkscape:cy="512.00001"
     inkscape:window-width="2560"
     inkscape:window-height="1300"
     inkscape:window-x="0"
     inkscape:window-y="0"
     inkscape:window-maximized="1"
     inkscape:current-layer="svg64" />
  <path
     fill="#4F2C1B"
     d="M566.372 205.237C580.412 204.869 594.459 205.639 608.374 207.541C664.075 215.272 716.569 248.57 750.289 293.211C779.435 332.091 795.902 379.002 797.454 427.569C797.945 445.504 796.563 459.425 794.096 477.047C806.096 486.146 814.915 495.591 822.368 508.841C833.641 528.549 836.463 551.979 830.19 573.799C823.607 596.98 806.909 615.508 786.151 627.182C786.784 632.921 790.788 648.762 790.052 652.864C787.485 655.013 782.338 656.585 779.107 657.49C749.939 665.664 720.447 676.414 691.252 684.044C682.572 680.174 680.404 680.246 671.036 681.122C670.146 677.263 669.782 674.172 669.292 670.228L662.924 671.86C654.198 667.697 651.089 667.91 641.806 668.799C641.426 666.234 641.156 661.432 639.384 659.962C638.083 660.026 635.655 660.155 635.299 661.853C630.558 684.494 636.733 700.501 657.59 710.568C660.473 707.916 662.614 706.044 666.237 704.349C669.036 703.02 672.089 702.312 675.188 702.275C684.924 702.104 685.698 707.973 692.854 710.862C698.251 712.754 704.224 714.003 709.592 715.912C721.16 720.078 746.422 733.647 744.092 748.512C741.329 766.143 735.463 784.265 731.31 801.693C726.738 821.662 718.617 837.239 695.874 837.992C682.347 838.44 667.77 838.249 654.185 837.978C647.191 837.838 628.471 838.39 622.918 835.347C611.402 829.037 612.44 804.889 618.286 794.772C623.973 783.589 632.133 778.006 643.617 774.157C644.538 771.616 645.451 769.918 646.669 767.528C646.556 767.447 646.442 767.365 646.329 767.283L645.77 766.864C637.556 760.775 637.556 753.966 639.938 744.731C605.591 728.156 592.949 708.193 594.034 670.002C570.432 672.65 551.09 670.236 527.788 668.747C501.278 667.053 481.749 665.233 456.068 658.45C438.571 689.454 439.43 715.27 444.233 748.928C449.68 749.041 458.785 748.658 462.934 752.304C464.534 753.711 465.482 755.78 465.87 757.881C466.537 761.491 464.143 767.1 464.568 770.362C465.003 773.694 466.316 778.669 467.087 782.032C468.427 787.657 469.302 793.382 469.701 799.15C470.219 806.558 469.952 826.785 464.868 832.018C460.426 836.591 435.677 835.643 428.805 835.751C407.788 836.042 386.769 836.184 365.75 836.177C363.086 836.198 359.956 836.39 357.333 836.238C344.047 835.464 328.011 840.595 326.557 821.829C325.646 808.689 329.861 795.706 338.317 785.607C349.055 773.037 359.957 770.611 375.465 769.378C377.678 765.751 380.073 764.969 383.834 763.598C380.628 747.655 393.109 749.049 404.57 748.64C396.954 713.032 402.026 675.881 418.907 643.617C375.297 619.55 348.599 594.027 323.4 551.037C292.289 579.23 253.076 580.308 220.442 553.966C220.748 556.566 222.195 562.543 223.162 565.231C226.417 574.285 216.1 578.117 209.785 573.958C205.296 571.001 204.609 558.865 203.792 553.24C190.756 548.801 182.282 544.194 177.775 530.339C171.752 511.824 171.036 490.472 192.566 482.792L191.338 475.142C177.202 472.628 163.328 467.718 153.497 456.87C121.17 421.2 145.58 364.716 169.208 330.811C173.721 324.335 178.676 317.375 184.193 312.141C189.019 314.676 194.799 320.433 198.669 324.481C216.949 343.684 231.535 365.087 240.016 390.297C252.415 427.149 240.666 461.796 201.666 474.081C202.251 476.161 202.724 478.783 203.173 480.936C209.167 481.392 210.444 481.727 215.896 484.028C228.516 477.55 236.61 488.047 240.535 498.862C243.368 506.668 244.014 513.901 243.934 522.125C245.074 523.297 246.814 524.842 248.11 525.87C256.231 532.364 266.658 535.245 276.961 533.841C289.359 532.159 299.705 525.123 307.243 515.353C298.95 491.182 293.816 467.344 293.434 441.633C291.927 378.781 315.74 317.959 359.52 272.837C395.684 235.737 443.653 212.409 495.166 206.87C516.087 204.791 544.743 205.532 566.372 205.237Z"
     id="path2" />
  <path
     fill="#528688"
     d="M519.763 251.215C548.725 250.607 577.363 257.41 602.958 270.979C648.377 295.456 674.974 327.129 690.367 376.824C704.478 422.382 700.2 480.819 677.274 523.108L634.247 535.492C628.21 537.193 610.368 541.75 605.649 544.274C605.591 548.087 607.076 556.384 607.702 560.301C609.648 572.468 612.179 584.485 613.908 596.708C588.433 613.449 560.593 620.648 530.584 622.937C482.097 623.91 437.854 608.231 402.237 574.994C365.413 540.525 343.936 492.738 342.608 442.316C340.991 394.58 359.136 344.273 391.888 309.351C425.072 273.72 471.098 252.795 519.763 251.215Z"
     id="path3"
     style="fill:#e9ddaf" />
  <path
     fill="#4F2C1B"
     d="M505.088 306.616C514.95 305.892 522.553 311.812 522.672 322.005C522.826 335.165 521.769 348.605 520.968 361.763C519.829 380.452 519.779 399.53 517.922 418.131C524.19 424.432 524.973 428.834 525.048 437.093C526.196 436.784 527.349 436.495 528.506 436.226C557.296 429.657 557.384 483.826 512.622 489.424C509.801 489.728 507.287 489.81 504.392 489.798C485.962 489.725 463.479 476.329 464.047 455.824C464.317 451.063 466.168 446.463 469.891 443.411C475.174 439.08 480.458 439.264 486.778 439.764C485.27 429.673 486.225 424.968 493.436 417.63C492.93 386.547 493.512 355.066 493.09 323.942C492.966 314.832 496.938 310.145 505.088 306.616Z"
     id="path4" />
  <path
     fill="#93D5DB"
     d="M505.517 311.54C512.167 311.204 517.698 314.701 517.852 321.87C518.099 333.41 517.022 345.377 516.372 356.935C515.592 372.485 514.711 388.029 513.731 403.568C513.573 406.37 514.244 413.107 512.508 414.746L511.204 414.365C505.236 413.253 504.411 413.197 498.381 414.599C498.383 392.554 498.266 370.51 498.032 348.466C497.958 339.976 497.471 328.518 498.313 320.032C498.672 316.417 502.489 313.376 505.517 311.54Z"
     id="path5" />
  <path
     fill="#6A3C23"
     d="M530.979 440.574C541.448 439.954 543.765 448.357 543.487 457.07C526.915 451.647 512.755 453.578 498.079 463.043C491.779 467.106 487.454 472.41 482.728 478.087C474.538 472.493 464.61 460.751 470.603 450.131C477.095 438.626 497.874 449.571 508.764 447.512C516.825 445.988 523.048 442.985 530.979 440.574Z"
     id="path6" />
  <path
     fill="#FAC3BD"
     d="M525.463 458.718C532.427 458.364 536.375 459.485 542.791 461.834C535.017 478.116 522.87 484.793 505.012 485.057C498.265 484.837 493.396 483.378 487.167 481.043C496.235 466.302 508.632 460.231 525.463 458.718Z"
     id="path7" />
  <path
     fill="#93D5DB"
     d="M503.435 419.075C513.489 418.398 523.916 428.341 519.062 438.697C517.795 441.4 510.738 441.898 507.622 442.24C504.74 442.663 496.629 443.437 494.625 441.547C486.079 433.488 493.69 421.071 503.435 419.075Z"
     id="path8" />
  <path
     fill="#4F2C1B"
     d="M583.747 346.587C640.809 341.98 646.525 427.766 595.484 438.39C586.879 440.172 576.252 438.32 568.97 433.464C534.638 410.573 542.303 355.934 583.747 346.587Z"
     id="path9" />
  <path
     fill="white"
     d="M586.413 351.177C630.87 346.208 643.113 425.005 592.377 433.997C570.946 434.996 556.04 420.329 552.958 399.623C551.103 387.734 554.114 375.599 561.31 365.955C567.837 357.273 575.726 352.631 586.413 351.177Z"
     id="path10" />
  <path
     fill="#4F2C1B"
     d="M582.653 357.665C622.713 355.065 625.949 424.851 585.842 428.761C547.181 431.248 540.587 363.035 582.653 357.665Z"
     id="path11" />
  <path
     fill="#528688"
     d="M580.963 362.59C585.781 362.345 589.885 362.321 594.344 364.59C609.975 372.546 613.43 394.902 605.612 409.434C601.518 417.042 596.426 421.009 588.337 423.485C583.235 424.451 577.956 423.622 573.397 421.138C552.204 409.781 553.258 370.483 580.963 362.59Z"
     id="path12" />
  <path
     fill="white"
     d="M572.972 371.302C578.185 370.215 583.286 373.583 584.333 378.805C585.381 384.026 581.975 389.102 576.746 390.11C571.572 391.108 566.561 387.746 565.525 382.579C564.488 377.413 567.813 372.377 572.972 371.302Z"
     id="path13" />
  <path
     fill="#4F2C1B"
     d="M420.28 343.217C473.382 343.217 478.67 427.534 423.805 434.66C367.793 437.028 366.314 346.915 420.28 343.217Z"
     id="path14" />
  <path
     fill="white"
     d="M417.822 348.135C424.599 347.387 431.443 348.721 437.441 351.961C446.83 357.079 453.096 366.153 456.01 376.303C459.355 387.902 457.92 400.357 452.024 410.891C446.091 421.281 438.166 426.574 426.875 429.588C378.835 437.276 368.869 356.547 417.822 348.135Z"
     id="path15" />
  <path
     fill="#4F2C1B"
     d="M424.696 354.652C430.082 354.008 437.29 356.118 441.737 359.107C458.231 370.192 460.568 396.282 449.767 412.042C444.387 419.891 438.404 423.206 429.256 425.001C387.249 427.256 385.718 360.012 424.696 354.652Z"
     id="path16" />
  <path
     fill="#528688"
     d="M423.565 359.557C437.219 358.894 445.861 365.936 449.955 378.512C452.894 387.675 452.085 397.628 447.703 406.195C443.545 414.174 438.301 417.585 430.082 420.117C424.875 420.941 419.543 419.954 414.977 417.321C408.538 413.632 404.445 407.013 402.614 399.966C400.239 390.606 401.63 380.688 406.488 372.343C410.529 365.506 415.885 361.545 423.565 359.557Z"
     id="path17" />
  <path
     fill="white"
     d="M416.572 367.883C421.681 366.416 427.007 369.392 428.436 374.512C429.864 379.633 426.848 384.936 421.716 386.326C416.64 387.7 411.406 384.723 409.993 379.657C408.58 374.592 411.517 369.335 416.572 367.883Z"
     id="path18" />
  <path
     fill="#FAC3BD"
     d="M400.038 437.629C409.384 436.431 424.222 439.432 427.005 449.929C427.787 452.87 427.271 456.005 425.589 458.541C422.517 463.262 417.065 465.159 411.893 466.408C401.934 467.681 386.228 465.288 383.701 453.619C383.066 450.791 383.646 447.827 385.299 445.446C388.603 440.604 394.577 438.651 400.038 437.629Z"
     id="path19" />
  <path
     fill="#FAC3BD"
     d="M601.713 443.158C625.606 441.004 639.96 465.65 609.577 472.028C597.729 472.844 586.271 470.32 582.258 457.69C584.503 446.975 591.898 444.434 601.713 443.158Z"
     id="path20" />
  <path
     fill="#4F2C1B"
     d="M662.024 430.083C670.909 429.432 684.446 427.97 688.268 438.064C689.616 441.695 689.444 445.716 687.79 449.219C685.889 453.16 683.325 454.685 679.361 455.997C666.836 457.223 647.963 456.399 653.728 437.751C654.976 433.715 658.356 431.614 662.024 430.083Z"
     id="path21" />
  <path
     fill="#93D5DB"
     d="M662.958 434.494C668.881 434.385 680.418 433.006 683.497 438.828C686.237 444.008 683.462 448.552 678.989 451.252C671.392 451.333 655.637 453.387 657.634 441.137C658.177 437.807 660.315 436.272 662.958 434.494Z"
     id="path22" />
  <path
     fill="#4F2C1B"
     d="M501.28 577.092C513.869 576.95 517.054 585.567 516.481 596.704C516.025 605.562 515.012 611.268 505.265 613.483C492.223 613.515 489.244 605.075 489.848 593.607C490.296 585.091 492.508 579.521 501.28 577.092Z"
     id="path23" />
  <path
     fill="#93D5DB"
     d="M502.207 582.062C509.507 582.451 511.948 587.478 511.898 594.158C511.845 601.278 511.908 605.525 505.062 608.68C492.154 608.447 493.355 595.023 496.584 585.76C497.265 583.806 500.307 582.598 502.207 582.062Z"
     id="path24" />
  <path
     fill="#4F2C1B"
     d="M512.791 259.583C515.603 259.475 517.989 259.648 520.547 260.982C523.719 262.649 526.08 265.532 527.089 268.971C528.436 273.403 528.384 285.113 525.771 289.168C523.005 293.461 521.408 294.263 516.758 295.548C513.773 295.605 511.859 295.741 509.105 294.489C505.929 293.057 503.486 290.378 502.351 287.084C500.631 282.232 500.727 271.149 503.308 266.548C505.835 262.043 508.117 260.904 512.791 259.583Z"
     id="path25" />
  <path
     fill="#93D5DB"
     d="M512.129 264.563C521.634 263.795 523.575 269.259 523.214 278.12C522.97 284.082 522.837 287.867 517.065 290.651C509.258 291.814 505.979 286.791 506.106 279.554C506.224 272.808 505.985 268.339 512.129 264.563Z"
     id="path26" />
  <path
     fill="#4F2C1B"
     d="M358.499 418.682C367.232 418.024 378.647 418.349 381.599 428.6C382.533 431.861 382.08 435.363 380.347 438.279C378.036 442.201 375.246 443.752 371.085 444.937C362.545 445.411 351.824 445.891 348.334 435.989C347.19 432.666 347.484 429.017 349.144 425.92C351.389 421.648 354.24 420.134 358.499 418.682Z"
     id="path27" />
  <path
     fill="#93D5DB"
     d="M357.905 423.564C363.161 423.442 373.236 422.191 375.927 427.341C378.488 432.242 375.97 437.705 371.328 440.124C369.01 440.43 366.053 440.468 363.71 440.331C352.321 439.666 347.135 430.938 357.905 423.564Z"
     id="path28" />
  <path
     fill="#4F2C1B"
     d="M589.55 314.179C609.409 312.959 630.099 335.485 608.089 338.099C603.672 336.271 601.459 332.39 597.56 330.976C592.96 329.308 587.282 330.339 582.641 327.91C577.561 325.25 578.536 321.285 581.467 317.319C583.562 314.625 586.42 314.532 589.55 314.179Z"
     id="path29" />
  <path
     fill="#4F2C1B"
     d="M420 311.616C425.225 311.207 431.652 310.799 435.779 314.53C439.992 318.338 436.969 322.878 433.976 326.024C426.248 326.586 422.341 324.984 415.527 329.429C414.013 330.598 412.203 332.19 410.325 332.819C402.631 335.397 397.696 327.981 401.94 321.433C405.587 315.804 413.538 313.012 420 311.616Z"
     id="path30" />
  <path
     fill="#EEC686"
     d="M505.743 210.705C528.755 208.473 561.249 213.899 582.951 221.374C637.288 240.223 681.931 279.855 707.087 331.575C730.214 378.804 736.449 432.535 724.752 483.805C722.019 495.841 718.036 507.123 714.016 518.763C706.383 513.498 704.432 514.917 695.554 517.531C691.79 518.639 687.866 519.894 684.103 521.058C702.304 480.801 708.299 438.462 699.988 394.857C690.508 343.303 660.843 297.664 617.577 268.07C576.478 239.936 525.824 229.433 476.928 238.909C413.389 251.23 360.274 296.869 335.416 356.012C318.85 395.427 315.438 435.992 323.602 477.72C328.633 501.925 338.061 525.002 351.417 545.806C409.756 636.961 523.429 664.061 615.189 605.41C617.331 614.09 618.959 625.328 620.643 634.374C594.01 649.892 564.226 659.217 533.499 661.656C475.906 666.229 421.586 647.386 377.764 609.973C331.842 570.2 303.489 513.899 298.874 453.323C294.327 392.587 314.01 332.521 353.619 286.254C392.632 240.731 446.349 215.285 505.743 210.705Z"
     id="path31" />
  <path
     fill="#FBE5BB"
     d="M560.401 210.314C601.207 207.484 641.958 216.54 677.724 236.385C733.194 267.262 767.947 315.684 785.201 376.159C770.584 384.323 750.074 393.472 732.916 388.759C732.345 388.601 731.78 388.422 731.222 388.225C724.473 357.563 715.187 332.246 697.944 305.672C666.625 257.404 617.035 221.994 560.401 210.314Z"
     id="path32" />
  <path
     fill="#94C67F"
     d="M184.855 318.335C208.289 337.309 230.838 372.187 237.949 401.262C245.48 432.054 231.021 460.474 199.88 469.48C199.576 467.23 199.036 464.726 198.58 462.494C196.53 452.452 195.218 442.4 194.23 432.194C193.062 419.982 192.154 407.748 191.505 395.497C191.12 387.25 190.93 378.991 190.527 370.747C190.436 368.883 190.523 366.679 188.627 366.017C188.125 366.295 188.016 366.312 187.573 366.787C184.841 369.714 186.294 394.846 186.38 399.592C182.494 395.37 178.536 391.215 174.508 387.129C172.662 386.01 172.022 385.283 170.108 386.533C169.894 391.082 182.426 402.401 186.121 407.245L186.532 407.79C187.424 414.735 187.641 428.355 188.02 435.872C185.32 433.131 173.089 418.66 169.776 421.07C169.676 425.15 185.066 439.868 188.897 444.312C189.242 451.477 190.663 463.011 191.568 470.166C165.496 465.888 145.986 449.877 143.505 422.686C140.053 384.867 162.103 346.704 184.855 318.335Z"
     id="path33" />
  <path
     fill="#9E6643"
     d="M764.022 467.605C769.877 467.019 772.263 467.939 777.261 471.066C793.386 481.157 807.182 493.148 817.049 509.615C840.777 549.215 826.317 597.558 787.372 620.907C781.969 624.149 776.298 626.736 770.865 629.891C766.095 645.927 756.826 658.138 739.294 662.794C734.251 664.133 730.029 662.192 725.889 659.403C729.043 658.146 745.304 652.01 740.283 646.553C735.159 646.31 712.509 668.808 709.769 645.243C710.847 645.183 711.922 645.088 712.993 644.958C717.992 644.357 731.889 641.104 730.483 634.335C726.899 633.167 712.263 643.499 705.714 640.029C684.369 628.719 724.711 620.397 727.592 614.73C727.043 610.185 707.968 600.666 719.177 593.662C724.691 590.217 748.008 601.108 754.422 602.997L755.164 603.211C756.986 602.625 758.773 601.934 760.515 601.141C776.109 593.997 791.501 583.229 797.197 566.62C806.492 539.517 792.296 515.773 770.222 500.437C765.617 496.51 756.896 494.196 754.388 488.305C750.515 479.205 755.453 471.089 764.022 467.605Z"
     id="path34" />
  <path
     fill="#EEC686"
     d="M672.925 707.063C683.639 706.537 683.767 713.229 690.363 715.367C706.069 720.458 717.262 721.914 730.227 733.792C724.223 758.527 717.217 783.212 709.833 807.54C707.853 814.065 703.68 817.333 697.163 817.74C688.888 818.257 680.09 818.042 671.815 818.055L618.654 818.046C618.559 816.581 618.525 815.112 618.553 813.643C618.782 802.59 622.386 794.262 630.342 786.667C641.615 776.352 661.49 773.589 675.285 780.63C677.322 781.669 679.185 783.18 681.501 783.382C682.965 782.388 682.483 783.03 683.091 781.467C680.68 775.046 666.489 772.547 660.28 772.439C657.187 772.386 652.237 773.147 649.431 772.507C649.468 765.529 669.593 765.64 674.169 767.781C676.041 768.656 682.48 769.768 684.079 768.287C684.249 762.688 667.611 761.445 663.53 762.038C649.671 764.051 640.231 765.132 644.531 746.42C648.824 748.181 655.886 751.601 660.511 749.191C669.791 744.355 677.309 727.69 673.715 717.559C672.687 714.662 665.947 713.592 662.872 712.685C666.783 709.174 668.001 708.551 672.925 707.063Z"
     id="path35" />
  <path
     fill="#EEC686"
     d="M465.963 618.341C486.903 627.366 524.588 629.407 547.059 626.316C553.452 625.436 564.385 622.227 569.218 622.013C567.721 623.943 548.075 627.723 544.634 628.362C505.68 635.818 465.351 630.009 430.084 611.863C383.868 587.669 349.154 546.108 333.58 496.321C317.327 445.575 322.055 390.435 346.708 343.196C370.266 297.769 410.923 263.578 459.717 248.16C496.28 236.786 536.361 237.769 572.342 250.525C582.013 253.954 590.573 258.268 599.625 263.012L598.904 263.517C556.078 243.298 506.949 241.031 462.443 257.221C415.605 273.898 377.405 308.651 356.383 353.706C334.139 400.984 331.718 455.192 349.658 504.264C366.529 551.144 401.307 589.418 446.361 610.689C448.408 611.624 450.468 612.531 452.54 613.409C456.582 612.163 464.551 614.203 465.963 618.341Z"
     id="path36" />
  <path
     fill="#6A3C23"
     d="M452.54 613.409C456.582 612.163 464.551 614.203 465.963 618.341C461.329 617.07 456.985 615.211 452.54 613.409Z"
     id="path37" />
  <path
     fill="#EEC686"
     d="M731.222 388.225C731.78 388.422 732.345 388.601 732.916 388.759C750.074 393.472 770.584 384.323 785.201 376.159C792.147 406.624 796.184 442.433 789.486 473.317C782.24 468.291 772.478 460.322 763.751 462.523C746.348 466.912 741.703 490.128 758.531 499.026C765.193 502.55 774.517 509.825 779.4 514.921C777.555 519.777 772.519 533.773 769.895 537.699C768.362 538.249 767.677 536.945 766.994 536.974C764.02 537.1 760.313 538.035 757.375 538.329C752.201 535.648 752.667 533.253 746.328 533.77C743.925 511.846 738.055 530.128 724.876 518.197L718.996 519.503C735.594 471.434 739.605 438.93 731.222 388.225Z"
     id="path38" />
  <path
     fill="#EEC686"
     d="M394.355 753.673C395.064 753.634 395.773 753.608 396.483 753.594C408.687 753.444 420.893 753.447 433.098 753.603C438.377 753.653 455.659 752.612 460.006 756.674C463.067 759.535 458.669 768.973 459.397 771.474C463.791 786.56 465.753 799.676 464.649 815.499C420.223 815.41 375.797 815.547 331.372 815.911C331.73 811.85 331.984 809.846 332.884 805.895C335.598 795.623 341.995 786.707 350.857 780.845C364.968 771.461 383.569 772.471 396.581 783.329C398.567 784.963 403.61 790.474 405.148 790.797C406.837 789.815 406.197 790.469 407.146 788.768C407.139 785.528 404.06 783.487 401.862 781.456C395.277 775.372 388.437 772.431 379.847 770.259C389.022 765.121 398.324 768.574 406.733 773.802C409.391 775.455 412.991 778.847 415.906 779.573C417.61 778.869 418.118 776.645 417.135 775.449C412.821 770.2 404.627 766.513 398.209 764.581C394.887 763.581 391.743 763.528 388.468 762.422C387.11 760.463 387.449 757.876 388.778 755.969C390.132 754.025 392.171 753.982 394.355 753.673Z"
     id="path39" />
  <path
     fill="#FAC3BD"
     d="M765.92 541.625C766.638 542.355 774.168 583.165 774.927 587.405C769.122 591.081 761.579 595.767 755.253 598.167C745.037 594.831 709.454 576.479 711.62 601.635C712.056 606.697 717.076 610.707 720.961 613.598C711.896 618.344 690.399 623.553 696.074 637.815C697.766 642.067 701.521 643.462 705.452 645.017C705.375 655.972 710.015 660.609 721.229 660.502C724.621 664.224 726.017 664.385 729.704 667.349L729.434 668.005L727.119 668.75C715.626 672.101 704.238 675.77 692.715 679.069C691.443 668.633 688.29 653.744 686.411 642.922L673.496 569.173L765.92 541.625Z"
     id="path40" />
  <path
     fill="#9E6643"
     d="M221.157 524.72C221.803 523.305 222.677 521.16 223.552 519.914C225.689 516.872 235.918 507.06 231.028 503.492C226.255 504.401 221.814 519.915 213.898 514.391C204.445 507.794 216.802 476.682 229.234 489.833C237.573 498.652 239.831 512.727 238.721 524.34C260.23 544.808 287.522 543.777 307.797 522.086L308.914 520.879C312.074 529.156 316.795 538.682 320.773 546.671C315.931 551.124 312.55 554.18 305.675 558.277C280.701 573.161 250.384 570.501 227.155 553.502C226.98 553.373 226.598 552.823 226.432 552.621C226.839 551.496 226.575 552.027 227.855 551.172C222.833 549.268 224.783 552.013 221.413 550.818L220.716 548.691C219.187 548.658 219.8 548.962 218.738 548.002C218.808 542.163 232.349 539.269 221.157 524.72Z"
     id="path41" />
  <path
     fill="#6A3C23"
     d="M220.716 548.691C224.137 547.181 224.632 546.736 228.281 547.286C228.654 547.562 229.495 548.107 229.711 548.437C229.347 549.773 229.358 550.178 227.855 551.172C222.833 549.268 224.783 552.013 221.413 550.818L220.716 548.691Z"
     id="path42" />
  <path
     fill="#9E6643"
     d="M423.519 645.834C432.649 650.519 441.786 653.666 451.368 657.221C436.891 682.713 434.478 706.583 437.317 735.226C437.58 737.876 439.325 746.743 438.629 748.488L437.625 748.663C428.428 748.501 418.859 748.675 409.635 748.717C401.891 713.862 406.814 677.389 423.519 645.834Z"
     id="path43" />
  <path
     fill="#9E6643"
     d="M629.396 662.628C630.182 663.906 629.24 673.256 629.181 675.797C628.608 700.615 647.121 715.507 670.166 719.768C669.777 727.316 667.076 740.608 659.253 743.903C654.684 745.828 649.677 743.35 645.377 741.707C610.713 728.454 597.843 705.353 598.941 669.356C609.871 667.981 618.869 665.592 629.396 662.628Z"
     id="path44" />
  <path
     fill="#EEC686"
     d="M734.003 737.152C738.275 739.733 740.117 744.318 739.265 749.161C737.202 758.549 735.35 769.513 732.331 778.648C726.045 797.674 725.541 829.852 700.224 832.815C690.977 833.898 680.284 833.788 671.154 833.564C656.926 833.216 641.1 834.123 627.155 832.144C622.376 830.003 621.567 827.16 619.568 822.51L673.884 822.745C679.812 822.739 694.872 823.001 700.167 822.15C702.638 821.743 704.999 820.828 707.1 819.464C713.404 815.372 715.373 806.86 717.139 800.028C722.564 779.035 729.481 758.371 734.003 737.152Z"
     id="path45" />
  <path
     fill="#FBE5BB"
     d="M705.284 519.558L707.473 519.542C708.947 520.36 708.948 520.261 709.966 521.568C708.952 522.359 705.463 523.164 704.018 523.58C681.168 530.162 658.434 537.181 635.484 543.408C630.902 544.651 626.211 545.835 621.831 547.665C621.991 553.382 625.264 570.124 626.374 576.654L635.757 632.409C636.409 636.292 639.339 652.428 639.25 655.682C637.73 656.254 636.133 655.665 634.455 655.314C632.757 654.891 630.367 653.993 628.65 653.41C625.916 643.175 623.314 624.873 621.462 613.864L610.215 547.21C641.67 538.173 673.837 528.144 705.284 519.558Z"
     id="path46" />
  <path
     fill="#F3F2EA"
     d="M626.789 553.188C632.365 554.559 634.908 555.003 640.617 555.014C646.296 591.427 652.927 629.238 659.295 665.545C653.698 663.656 651.097 663.441 645.396 664.532C643.748 649.929 640.131 631.941 637.688 617.256C634.172 596.119 630.798 574.164 626.789 553.188Z"
     id="path47" />
  <path
     fill="#9E6643"
     d="M200.657 485.652C206 485.301 207.282 485.781 212.238 487.377C209.084 492.202 207.809 495.083 205.777 500.45C200.71 500.485 188.094 502.561 185.475 507.125C185.774 513.714 194.642 506.424 198.201 505.825C200.775 505.391 202.167 505.001 204.876 504.814C205.172 512.607 206.677 516.157 213.788 519.425C214.809 519.894 216.149 520.437 216.738 521.302C212.048 520.411 208.677 519.509 203.828 520.155C200.334 520.62 189.719 522.716 190.402 527.205L191.708 528.044C193.755 528.399 194.852 527.698 196.897 526.917C198.907 526.201 200.977 525.669 203.083 525.327C210.998 524.019 227.414 528.434 218.537 539.151C214.067 544.548 200.087 543.634 193.006 543.489C180.073 535.797 174.424 507.547 183.124 495.058C187.637 488.579 193.387 486.844 200.657 485.652Z"
     id="path48" />
  <path
     fill="#93D5DB"
     d="M740.068 526.591L740.62 526.849C741.591 528.672 742.033 533.049 742.372 535.292C734.532 538.045 725.093 540.647 717.03 543.067L676.286 555.331C669.096 557.485 657.858 560.426 651.156 563.11C651.52 571.14 654.241 584.654 655.68 593.003C658.248 608.654 660.966 624.28 663.831 639.879C664.965 646.019 667.697 659.721 668.028 665.406C666.691 666.504 666.042 666.364 664.186 666.746C662.985 665.092 646.413 562.719 644.976 553.915C655.433 551.409 669.112 547.198 679.521 544.123C699.646 538.083 719.829 532.239 740.068 526.591Z"
     id="path49" />
  <path
     fill="#EEC686"
     d="M430.651 820.255L464.291 819.975C463.269 824.243 462.497 829.48 457.328 829.913C446.863 830.79 436.251 830.823 425.746 830.96L364.518 831.476C356.437 831.435 343.856 832.798 336.132 830.02C333.564 829.096 330.008 823.705 332.019 820.858C336.88 820.046 356.637 820.56 362.869 820.555L430.651 820.255Z"
     id="path50" />
  <path
     fill="#F3F2EA"
     d="M656.209 568.307C661.535 569.956 663.695 570.269 669.276 570.208C674.476 605.199 681.656 642.283 687.792 677.34C683.599 677.39 682.451 675.891 674.733 676.603L662.618 606.679C660.544 594.649 657.707 580.226 656.209 568.307Z"
     id="path51" />
  <path
     fill="white"
     d="M783.174 519.213C790.183 524.141 795.62 541.591 795.405 550.162C795.09 562.701 790.623 572.585 781.876 581.414C780.78 582.533 780.705 582.725 779.291 583.481C777.874 581.257 772.568 551.156 771.461 546.001C776.077 536.614 779.23 528.907 783.174 519.213Z"
     id="path52" />
  <path
     fill="#EEC686"
     d="M620.77 639.98C622.643 641.383 622.922 651.756 624.337 654.822C626.021 658.471 626.098 656.009 627.229 657.854C603.929 665.76 578.547 667.572 554.125 666.031C550.997 665.974 548.237 665.71 545.127 665.423C550.846 663.695 562.189 662.169 569.184 660.425C588.378 655.639 603.34 649.065 620.77 639.98Z"
     id="path53" />
  <path
     fill="white"
     d="M722.236 523.047C724.496 523.225 725.269 524.266 727.349 525.708C707.466 530.968 687.985 536.941 668.26 542.654C661.441 544.629 643.246 550.756 637.124 550.162C634.673 550.002 632.072 549.739 629.612 549.528C652.603 542.578 676.252 536.836 699.238 529.677C706.692 527.356 714.679 524.955 722.236 523.047Z"
     id="path54" />
  <path
     fill="white"
     d="M746.805 538.486C748.808 538.25 751.038 539.837 752.863 540.848C743.089 544.208 672.693 565.694 667.639 565.632C665.007 565.567 662.307 565.05 659.692 564.642C687.57 556.64 719.275 547.503 746.805 538.486Z"
     id="path55" />
  <path
     fill="#FAC3BD"
     d="M780.831 629.955L781.397 630.076C782.594 631.637 785.186 647.484 785.768 650.663C777.543 653.307 769.302 655.899 761.045 658.44L756.507 659.767C766.955 652.221 771.037 644.821 774.827 632.887C776.663 632.139 779.013 630.869 780.831 629.955Z"
     id="path56" />
  <path
     fill="#94C67F"
     d="M212.696 547.758L213.455 547.758C214.759 550.061 218.515 566.553 218.566 569.435C217.662 570.663 216.354 570.769 214.803 571.198L212.884 570.232C210.733 567.36 207.977 552.309 208.339 548.671C209.408 547.762 211.175 547.877 212.696 547.758Z"
     id="path57" />
  <path
     fill="#9E6643"
     d="M194.48 459.351C195.569 464.955 198.107 476.48 198.38 481.826C198.226 481.725 197.407 481.276 197.335 480.998C196.282 476.962 193.769 462.528 194.48 459.351Z"
     id="path58" />
  <path
     fill="#9E6643"
     d="M599.625 263.012C603.26 264.584 604.121 265.399 607.316 267.7C604.601 266.453 601.376 265.114 598.904 263.517L599.625 263.012Z"
     id="path59" />
</svg>
