<?xml version="1.0" encoding="UTF-8" standalone="no"?>
<svg
   width="1024"
   height="1024"
   viewBox="0 0 1024 1024"
   version="1.1"
   id="svg42"
   sodipodi:docname="coin.svg"
   inkscape:version="1.4.3 (0d15f75042, 2025-12-25)"
   xmlns:inkscape="http://www.inkscape.org/namespaces/inkscape"
   xmlns:sodipodi="http://sodipodi.sourceforge.net/DTD/sodipodi-0.dtd"
   xmlns="http://www.w3.org/2000/svg"
   xmlns:svg="http://www.w3.org/2000/svg">
  <sodipodi:namedview
     id="namedview42"
     pagecolor="#ffffff"
     bordercolor="#000000"
     borderopacity="0.25"
     inkscape:showpageshadow="2"
     inkscape:pageopacity="0.0"
     inkscape:pagecheckerboard="0"
     inkscape:deskcolor="#d1d1d1"
     showgrid="false"
     inkscape:zoom="1.0566406"
     inkscape:cx="512.00001"
     inkscape:cy="512.00001"
     inkscape:window-width="2560"
     inkscape:window-height="1300"
     inkscape:window-x="0"
     inkscape:window-y="0"
     inkscape:window-maximized="1"
     inkscape:current-layer="svg42" />
  <path
     fill="#D2911E"
     d="M246.794 461.111C245.897 380.985 272.035 308.41 328.24 250.444C375.178 202.035 442.454 171.165 510.125 170.363C524.846 170.188 535.871 171.597 550.088 172.153C565.46 172.753 577.312 172.197 593.002 173.911C649.411 179.836 702.131 204.76 742.509 244.594C795.596 296.249 822.375 365.483 823.428 439.031C825.739 442.158 825.449 443.262 825.443 447.094L825.993 447.808C827.937 447.331 828.485 446.642 830.22 445.689C837.084 433.147 840.471 422.244 842.765 408.363C837.704 404.725 832.998 400.43 829.901 394.957C826.244 388.63 825.354 381.076 827.438 374.072C829.063 368.557 831.117 365.518 836.068 362.858C833.114 359.675 831.162 357.782 830.008 353.308C829.063 349.571 829.7 345.61 831.771 342.359C839.758 329.596 856.468 331.131 867.637 338.721C892.745 334.914 901.805 358.929 900.11 379.444C898.97 393.234 893.451 402.307 883.03 410.893C873.143 454.579 850.19 488.458 813.882 514.297C805.658 545.59 793.024 576.666 774.73 603.512C734.468 662.597 674.074 705.706 603.229 718.896C602.952 719.724 602.682 720.554 602.419 721.385C588.494 765.438 591.536 790.257 627.669 821.306C633.455 826.47 645.871 834.833 648.732 842.036C659.193 868.368 640.637 918.03 616.256 931.678C606.082 937.373 592.898 933.485 588.592 922.76C579.661 900.519 589.11 875.346 596.941 854.196C593.301 849.808 588.056 845.084 584.108 840.801C575.694 831.675 567.158 821.489 561.361 810.529C546.33 782.106 549.9 752.611 558.932 723.156C540.424 722.936 522.119 721.817 503.614 721.871C480.788 721.937 457.419 719.371 435.565 712.534C425.703 725.688 402.626 758.389 411.827 775.331C419.349 789.18 445.932 797.35 460.505 801.982C467.826 804.309 476.211 806.796 479.96 814.735C486.524 830.447 479.579 861.931 474.733 877.829C470.56 889.829 464.454 906.2 452.343 912.224C440.525 918.102 430.019 908.447 425.784 897.786C417.973 878.12 420.875 854.976 428.779 835.739C412.611 827.34 399.762 825.377 384.309 812.794C344.804 780.629 371.442 729.473 396.639 697.937C385.507 692.196 377.097 687.696 366.591 680.803C319.986 649.96 284.357 605.14 264.82 552.78C259.542 538.448 256.327 525.554 253.219 510.677C203.96 480.448 174.524 433.192 169.259 375.609C155.038 362.576 150.758 345.35 155.641 326.551C159.497 311.704 172.693 298.974 189.149 304.007C193.692 301.659 199.274 298.877 204.418 299.059C223.469 299.734 234.524 315.669 219.196 330.133C231.886 338.394 229.582 355.677 221.115 366.132C217.508 370.585 213.902 373.301 209.215 376.526C210.672 410.815 221.715 437.28 246.794 461.111Z"
     id="path2" />
  <path
     fill="#F8F3D4"
     d="M823.428 439.031C825.739 442.158 825.449 443.262 825.443 447.094L825.993 447.808C827.937 447.331 828.485 446.642 830.22 445.689C827.96 449.931 825.307 453.713 822.627 457.69C823.169 452.701 823.232 444.296 823.428 439.031Z"
     id="path3" />
  <path
     fill="#F5C74A"
     d="M566.033 702.725C508.374 719.944 446.249 713.722 393.149 685.411C333.23 653.768 288.455 599.475 268.799 534.627C246.758 462.899 254.313 385.336 289.781 319.209C322.138 258.619 377.859 210.43 443.899 190.489C504.146 171.756 569.374 177.785 625.167 207.242C684.056 239.076 727.746 293.164 746.481 357.431C757.471 394.473 760.851 433.356 756.417 471.739C755.282 481.668 753.872 491.762 751.146 501.372C749.879 505.839 745.159 516.847 755.016 514.288C796.27 503.578 831.975 473.572 846.628 433.137C850.042 423.921 852.313 414.322 853.39 404.553L852.922 404.143C845.292 397.531 836.925 393.983 835.98 382.51C835.603 377.934 836.508 371.949 841.387 370.216C847.146 371.208 845.291 380.215 845.562 384.655C868.714 388.319 857.423 398.378 863.485 400.32C865.439 400.037 865.35 399.997 866.83 398.846C868.067 396.886 868.013 393.682 867.548 391.482C867.039 389.057 865.789 386.851 863.972 385.167L864.474 384.193L864.965 384.445C882.53 393.275 891.151 374.055 885.87 371.283C881.746 371.573 881.436 375.084 878.951 376.369C869.24 381.393 863.763 370.434 863.58 362.531C862.873 349.415 874.937 341.297 884.214 353.111C889.812 360.241 891.441 371.137 890.299 380.011C888.786 391.772 883.903 398.195 874.319 404.656C872.608 411.762 871.389 417.668 869.051 424.68C857.212 460.901 832.727 491.649 800.077 511.298C787.348 519.123 773.644 525.239 759.318 529.487C754.178 531.031 746.973 532.487 742.299 534.088L742.001 534.66C739.308 539.942 737.394 545.8 735.05 551.267C712.04 604.947 670.542 652.025 619.449 680.526C614.863 683.084 608.584 685.75 604.438 688.568C601.404 693.434 598.582 701.818 596.622 707.486C588.619 730.638 581.255 756.79 586.931 781.257C593.146 803.524 610.947 820.152 627.974 834.704C631.122 837.684 637.69 841.924 639.59 845.659C644.4 855.115 641.611 869.158 638.681 879.079C634.146 894.435 625.471 917.624 608.955 923.701C601.254 926.535 596.389 918.443 595.554 912.041C593.882 901.787 595.66 890.334 598.422 880.426C599.662 875.975 602.152 868.578 604.026 864.4C610.017 851.044 607.008 849.154 597.171 839.751C575.674 819.202 558.533 795.086 561.24 763.883C562.705 740.182 570.272 715.243 580.765 693.568C583.147 688.648 581.466 684.754 576.015 685.728C571.263 686.577 568.266 698.191 566.033 702.725Z"
     id="path4" />
  <path
     fill="#D2911E"
     d="M501.857 206.221C556.723 204.266 610.255 223.394 651.459 259.676C698.709 301.16 727.41 359.815 731.168 422.58C735.649 489.316 713.46 555.103 669.474 605.492C626.968 653.962 571.219 681.112 507.116 685.292C451.113 688.925 393.994 665.48 353.075 627.996C306.971 585.083 279.677 525.7 277.132 462.766C274.089 395.643 297.763 330.049 342.972 280.34C385.255 234.5 439.591 208.738 501.857 206.221Z"
     id="path5" />
  <path
     fill="#F5C74A"
     d="M497.415 215.209C549.647 212.255 601.058 229.208 641.287 262.652C687.895 301.567 716.938 357.556 721.906 418.07C727.782 482.389 707.633 546.378 665.968 595.727C627.627 642.148 572.135 671.079 512.124 675.936C455.703 679.348 405.263 661.717 362.736 624.694C317.375 584.52 289.856 527.953 286.246 467.466C282.078 403.039 303.385 339.552 345.578 290.685C385.233 245.548 437.419 219.006 497.415 215.209Z"
     id="path6" />
  <path
     fill="#D2911E"
     d="M423.291 474.6C433.072 474.211 445.4 487.49 458.56 489.308C474.521 491.513 482.034 485.78 496.652 485.554C506.715 485.398 510.935 500.961 508.301 508.819C505.836 518.199 499.965 523.675 492.019 528.951C473.462 538.861 452.859 540.384 433.84 530.324C423.079 524.632 413.416 515.13 409.834 503.246C406.263 491.397 410.441 478.124 423.291 474.6Z"
     id="path7" />
  <path
     fill="white"
     d="M423.117 484.857C428.282 484.847 436.795 491.698 442.83 494.493C448.483 497.096 454.482 498.872 460.642 499.766C467.974 500.785 476.825 499.521 483.991 497.687C486.317 497.092 495.711 494.299 497.389 496.318C503.422 503.581 496.152 512.438 490.715 517.479C472.333 531.875 442.52 529.158 426.578 512.375C419.475 504.898 414.24 493.113 423.117 484.857Z"
     id="path8" />
  <path
     fill="#F19491"
     d="M568.528 490.626C611.889 485.519 632.959 533.949 590.528 542.387C573.073 545.051 549.832 537.463 545.042 518.641C543.65 513.225 544.566 507.475 547.573 502.761C552.369 495.4 560.293 492.176 568.528 490.626Z"
     id="path9" />
  <path
     fill="#D2911E"
     d="M532.439 370.04C537.065 369.663 541.231 371.527 539.684 376.39C534.325 393.231 530.849 406.716 530.446 424.699C529.985 445.254 539.647 466.444 563.161 466.307C587.094 466.168 605.821 443.266 614.267 422.995C616.057 419.985 619.677 405.546 622.504 404.24C635.281 398.341 629.998 414.595 629.136 417.668C618.297 447.901 594.569 482.032 558.161 478.432C547.429 477.349 537.566 472.052 530.737 463.702C519.713 450.222 517.127 430.524 519.009 413.791C520.273 402.551 523.654 377.284 532.439 370.04Z"
     id="path10" />
  <path
     fill="#D2911E"
     d="M372.91 325.459C374.83 325.515 378.275 326.016 378.978 328.098C380.519 332.661 377.279 339.043 376.186 343.582C371.362 363.55 366.656 388.081 377.153 406.978C383.982 419.27 397.1 424.504 410.564 419.626C429.655 412.772 440.538 393.62 448.257 375.946C450.324 371.213 455.897 344.148 465.2 356.187C467.045 358.575 464.416 365.834 463.529 368.69C456.26 390.809 444.168 414.45 423.783 427.069C403.781 439.452 378.742 434.084 367.161 413.131C354.398 390.041 359.164 362.612 365.228 338.243C366.448 333.342 368.352 328.033 372.91 325.459Z"
     id="path11" />
  <path
     fill="#F19491"
     d="M338.918 432.631C380.271 428.548 401.99 476.742 364.204 483.379C354.179 483.853 347.187 482.951 338.308 477.886C318.308 466.475 309.752 440.119 338.918 432.631Z"
     id="path12" />
  <path
     fill="#D2911E"
     d="M431.202 275.634C462.428 273.099 472.011 293.809 437.975 299.868C403.872 304.298 397.287 281.475 431.202 275.634Z"
     id="path13" />
  <path
     fill="#D2911E"
     d="M591.369 320.581C604.624 319.905 615.189 328.327 622.537 338.692C626.428 344.181 628.153 351.737 621.329 355.668C604.397 358.879 577.246 332.141 591.369 320.581Z"
     id="path14" />
  <path
     fill="#F5C74A"
     d="M405.434 701.829C412.341 704.664 418.386 707.111 425.447 709.477C423.025 713.358 419.637 717.534 417.1 721.492C408.721 734.559 396.324 756.944 399.887 773.154C404.281 793.149 431.687 803.056 448.719 809.043C454.666 811.133 462.055 812.611 467.339 815.93C470.174 817.71 472.035 821.478 472.336 824.666C474.371 846.257 466.412 880.883 453.996 898.179C450.736 901.758 444.808 906.333 440.318 901.814C428.657 890.079 430.476 868.57 433.41 853.708C434.901 846.157 439.207 838.935 439.055 831.259C438.946 829.62 436.747 827.779 435.382 827.183C421.103 820.902 406.449 816.335 393.596 807.14C353.347 778.344 383.984 731.454 405.434 701.829Z"
     id="path15" />
  <path
     fill="#F5C74A"
     d="M179.776 312.569C196.274 311.686 194.535 338.4 182.533 342.733C175.599 345.237 170.869 333.165 166.941 334.381C165.261 336.958 166.093 339.91 167.255 342.564C172.497 354.531 181.322 354.283 191.594 349.288C188.269 353.546 182.986 364.662 190.515 367.223C197.746 364.387 186.728 355.093 203.669 352.168C205.275 351.89 206.877 351.597 208.477 351.286C208.472 346.663 207.896 338.377 213.955 337.584C223.153 340.866 217.304 358.41 211.512 362.927C199.292 372.458 198.176 368.126 199.627 384.491C201.511 407.095 209.073 428.856 221.612 447.757C230.747 460.629 235.869 465.913 247.893 475.903C248.194 481.612 249.2 491.103 250.138 496.689C248.523 495.67 246.934 494.609 245.375 493.507C211 469.304 186.615 428.591 180.562 387.157C179.75 381.598 179.215 376.006 178.257 370.478C172.327 365.844 168.813 362.412 166.096 355.26C160.537 340.624 163.307 318.656 179.776 312.569Z"
     id="path16" />
  <path
     fill="#F5C74A"
     d="M764.837 395.542C779.735 395.371 796.383 396.053 811.32 396.521C812.938 410.868 813.93 419.1 814.336 433.667C798.831 433.543 783.384 432.682 767.883 432.503C767.1 419.003 766.584 409.1 764.837 395.542Z"
     id="path17" />
  <path
     fill="#F5C74A"
     d="M749.487 542.046C764.91 541.71 780.355 542.251 795.819 541.788C792.686 550.955 786.184 566.722 781.193 575.01L734.345 575.155C736.554 569.814 740.269 563.39 742.745 557.804C745.03 552.649 747.1 546.962 749.487 542.046Z"
     id="path18" />
  <path
     fill="#F5C74A"
     d="M731.586 579.995C747.124 579.918 762.662 580.08 778.195 580.483C771.734 591.917 766.614 600.381 758.465 610.694C743.146 610.683 727.827 610.47 712.514 610.055C720.435 598.682 724.707 591.971 731.586 579.995Z"
     id="path19" />
  <path
     fill="#F5C74A"
     d="M757.546 361.439C772.878 361.275 787.826 362.058 803.088 362.184C806.023 371.776 808.371 381.539 810.119 391.416C796.197 391.582 778.148 390.49 763.873 390.135C762.143 380.49 760.032 370.917 757.546 361.439Z"
     id="path20" />
  <path
     fill="#F5C74A"
     d="M767.962 437.533L814.427 438.649C814.615 447.891 813.975 457.226 813.389 466.445C800.711 465.187 780.144 465.154 766.828 464.713C767.372 455.66 767.75 446.599 767.962 437.533Z"
     id="path21" />
  <path
     fill="#F5C74A"
     d="M736.363 306.236C748.69 305.427 766.72 306.195 779.223 306.516C782.906 312.986 790.018 326.149 792.379 332.979C778.131 332.193 762.334 332.355 747.871 331.949C745.602 326.681 737.602 310.459 736.363 306.236Z"
     id="path22" />
  <path
     fill="#F5C74A"
     d="M708.488 615.159C722.545 614.803 739.937 615.5 754.279 615.61C750.232 622.067 738.957 634.539 733.311 639.677C729.842 640.653 693.629 639.15 688.364 638.946C696.145 630.602 701.375 623.657 708.488 615.159Z"
     id="path23" />
  <path
     fill="#F5C74A"
     d="M699.099 253.962C712.25 254.035 726.243 254.191 739.341 253.757C746.493 260.432 754.489 270.405 760.418 278.154C746.822 277.605 731.987 278.083 718.102 277.775C711.844 268.783 706.921 261.823 699.099 253.962Z"
     id="path24" />
  <path
     fill="#F5C74A"
     d="M683.397 643.999C697.471 643.926 713.391 644.382 727.464 644.766C721.195 651.398 711.56 658.963 704.335 664.467C700.327 666.115 668.055 664.105 661.259 663.869C668.708 657.667 676.036 650.465 683.397 643.999Z"
     id="path25" />
  <path
     fill="#F5C74A"
     d="M749.553 337.002C764.472 336.991 779.586 338.01 794.573 337.525C797.198 343.983 799.478 350.575 801.402 357.275C787.971 357.467 769.535 356.877 756.112 356.148C754.197 349.641 752.179 343.267 749.553 337.002Z"
     id="path26" />
  <path
     fill="#F5C74A"
     d="M722.005 282.667C735.642 283.124 750.232 282.949 763.943 283.001C767.623 287.051 773.711 296.658 776.286 301.481C761.819 301.49 747.352 301.311 732.89 300.947C730.668 296.932 723.004 285.126 722.005 282.667Z"
     id="path27" />
  <path
     fill="#F5C74A"
     d="M672.633 227.937C682.148 227.374 698.329 227.921 708.246 227.995C711.802 230.021 731.795 245.699 732.722 248.712C720.048 248.829 707.374 248.864 694.7 248.817C687.367 242.15 680.412 234.946 672.633 227.937Z"
     id="path28" />
  <path
     fill="#F5C74A"
     d="M766.126 469.811C780.919 469.952 796.055 470.735 810.722 470.611C806.514 474.799 801.818 478.827 797.249 482.621C780.822 494.158 782.745 494.085 762.879 493.486C764.46 486.009 765.339 477.435 766.126 469.811Z"
     id="path29" />
  <path
     fill="#F5C74A"
     d="M646.506 201.216C650.086 201.073 658.414 200.606 661.475 201.443C674.409 204.978 690.409 215.712 701.652 222.879L691.257 222.561L665.439 222.458C653.331 213.916 647.768 209.2 634.411 201.751L646.506 201.216Z"
     id="path30" />
  <path
     fill="#F5C74A"
     d="M655.417 668.564L696.394 670.059C689.94 675.214 681.462 680.303 674.165 684.226C669.267 686.231 641.903 683.143 634.974 682.361C642.125 678.043 648.417 672.809 655.417 668.564Z"
     id="path31" />
  <path
     fill="#F5C74A"
     d="M627.205 686.895C632.066 686.591 656.627 689.247 662.61 689.846C658.896 692.137 650.8 695.308 646.516 697.003C645.257 697.543 642.126 698.884 640.918 698.994C632.481 699.759 620.545 697.283 612.032 695.996C617.07 692.93 622.128 689.897 627.205 686.895Z"
     id="path32" />
  <path
     fill="#F5C74A"
     d="M595.502 184.001C609.181 184.591 637.082 190.486 649.346 196.326C645.796 196.407 627.694 197.188 625.427 196.262C617.504 193.026 603.637 187.397 595.502 184.001Z"
     id="path33" />
  <path
     fill="#F5C74A"
     d="M202.586 308.546C212.224 307.994 224.328 316.321 213.317 322.611C210.648 322.638 207.745 322.382 205.106 321.97C201.662 321.433 197.741 313.644 197.154 310.606C198.687 309.256 200.538 309.054 202.586 308.546Z"
     id="path34" />
  <path
     fill="#F5C74A"
     d="M846.585 342.593C852.377 342.031 854.083 342.398 859.092 344.711C857.442 347.701 856.484 350.483 855.044 353.512C854.287 355.103 853.467 355.001 851.999 355.372C838.5 357.14 833.662 348.812 846.585 342.593Z"
     id="path35" />
  <path
     fill="#F5C74A"
     d="M801.729 521.977C802.272 524.227 798.633 534.273 797.729 537.06C788.51 536.882 779.025 536.988 769.785 536.983L769.923 536.213C780.106 533.414 792.713 527.333 801.729 521.977Z"
     id="path36" />
  <path
     fill="#F5C74A"
     d="M609.808 701.403C614.571 701.433 622.947 702.648 628.028 703.255L621.773 705.535C617.134 706.551 611.334 708.31 606.664 709.584C607.755 706.974 608.797 704.07 609.808 701.403Z"
     id="path37" />
  <path
     fill="#F5C74A"
     d="M200.901 330.368C203.009 330.56 204.028 330.414 205.514 331.542C203.67 335.288 201.901 338.667 200.806 342.702C200.442 344.045 199.771 344.154 198.831 344.492C197.011 345.275 196.65 345.474 194.732 345.803C198.485 339.066 199.512 338.061 200.901 330.368Z"
     id="path38" />
  <defs
     id="defs39">
    <linearGradient
       id="gradient_0"
       gradientUnits="userSpaceOnUse"
       x1="859.55414"
       y1="373.44522"
       x2="853.98224"
       y2="375.74625">
      <stop
         offset="0"
         stop-color="#E39D28"
         id="stop38" />
      <stop
         offset="1"
         stop-color="#F8D358"
         id="stop39" />
    </linearGradient>
  </defs>
  <path
     fill="url(#gradient_0)"
     d="M854.45 378.218C853.292 371.458 852.584 371.491 850.49 365.329C851.639 364.246 851.602 364.541 853.345 364.122C854.376 364.663 854.708 368.178 854.907 369.625C855.849 376.475 860.075 379.559 864.474 384.193L863.972 385.167C860.713 382.11 858.652 380.014 854.45 378.218Z"
     id="path39" />
</svg>
