<?xml version="1.0" encoding="utf-8" ?><svg xmlns="http://www.w3.org/2000/svg" xmlns:xlink="http://www.w3.org/1999/xlink" width="1024" height="1024" viewBox="0 0 1024 1024"><path fill="#6C0F23" d="M232.772 223.642C243.914 222.816 247.386 228.715 247.987 238.804C254.963 239.619 260.864 238.977 264.014 246.097C269.726 247.334 286.405 248.385 289.207 252.584C291.515 261.853 277.116 307.799 274.594 320.258C282.847 338.435 277.984 346.228 264.724 359.147C262.795 368.246 260.951 376.429 258.206 385.31C266.693 408.169 276.625 426.435 291.514 445.568C293.084 374.915 321.639 300.565 380.838 258.719C411.27 237.208 442.597 228.698 479.479 235.282C516.007 242.159 548.387 263.074 569.675 293.544C581.279 287.493 593.378 282.775 605.596 278.272C637.462 266.525 667.479 262.624 700.862 271.164C731.794 279.077 758.785 298.122 775.29 325.8C791.077 352.275 795.9 385.422 791.816 415.744C790.386 426.36 787.395 437.191 784.715 447.596C791.351 438.57 799.384 429.854 806.093 420.752C805.157 419.269 804.246 417.77 803.361 416.255C793.962 400.076 796.828 383.034 813.788 373.355C814.958 365.571 816.109 357.633 817.365 349.877C819.438 337.078 823.624 333.609 836.12 334.229C838.484 323.203 850.671 323.428 850.596 336.55C858.045 337.622 869.323 339.258 876.389 341.025C880.292 329.988 890.053 330.179 891.997 342.504C909.486 347.425 904.004 361.455 902.063 374.907C900.193 386.995 897.953 399.275 896.142 411.351C893.436 429.404 878.538 424.529 865.66 421.777C859.07 436.944 845.397 443.677 829.367 440.427C815.309 461.936 791.15 485.654 771.68 502.525C764.063 509.125 755.398 514.776 747.895 520.832C745.945 522.405 737.056 534.233 734.062 537.642C723.589 549.634 712.333 560.919 700.369 571.425C665.967 601.933 624.86 624.209 586.774 649.587C583.366 668.219 577.916 686.672 582.737 705.874C586.806 719.998 595.418 725.338 608.342 730.758C618.79 727.504 620.939 731.186 630.697 731.992C634.096 731.894 638 731.315 641.353 731.119C654.328 730.532 678.067 729.605 682.698 745.38C691.467 775.249 686.737 854.116 652.215 865.366C645.651 867.502 638.504 866.902 632.388 863.703C607.523 850.448 616.876 817.213 617.027 796.531C617.105 790.326 616.234 784.146 614.443 778.205C604.221 777.156 598.58 773.687 597.026 763.04C550.178 752.832 540.307 715.324 546.771 672.745C540.06 675.623 529.699 681.614 522.964 685.18C507.887 693.185 492.753 701.083 477.563 708.875C470.637 712.386 459.325 718.137 452.125 720.548C446.777 717.635 439.603 712.224 434.437 708.644C413.402 694.066 390.4 674.834 374.157 654.893C364.625 660.52 349.985 671.51 350.258 683.996C350.478 694.07 357.877 701.06 364.709 707.487C366.823 707.424 372.292 707.416 373.831 708.545C381.147 714.07 387.994 717.585 396.145 720.757C405.09 724.238 429.399 738.649 428.839 750.047C427.839 770.387 408.512 797.3 395.894 812.884C386.076 825.011 369.254 839.364 353.514 840.814C341.975 841.922 331.952 829.909 329.915 819.463C324.728 792.85 353.089 782.131 351.398 754.217C342.277 748.083 338.489 744.124 341.616 732.608C293.997 693.73 306.137 660.079 353.518 629.475C349.724 625.176 342.695 614.808 339.435 609.82C316.908 575.345 300.263 536.071 294.879 495.08C288.699 488.471 282.951 482.809 277.023 475.848C253.127 447.786 236.765 418.917 223.607 384.669C218.752 383.453 209.796 382.185 204.591 381.259L172.169 375.348C166.097 374.285 150.399 372.75 146.62 367.975C144.882 361.245 150.264 345.429 152.422 338.143C146.207 332.757 145.097 327.294 149.704 320.373C146.07 311.516 146.779 306.841 154.188 301.027C154.058 299.413 154.011 297.794 154.046 296.175C154.151 292.72 155.521 289.184 158.162 286.88C161.013 284.41 164.712 283.143 168.478 283.347C170.201 275.556 172.44 267.583 174.52 259.921C181.718 233.413 176.143 233.092 202.932 237.489C203.522 236.569 204.387 234.632 205.288 234.148C209.493 231.892 216.214 233.929 220.712 234.784C223.565 228.25 225.605 225.56 232.772 223.642Z"/><path fill="#E75758" d="M447.713 243.704C490.709 239.419 536.013 262.42 560.144 297.768C533.879 313.083 508.954 328.711 485.865 348.628C475.346 357.702 485.212 362.885 491.655 357.593C510.457 342.152 530.123 328.503 550.742 315.593C594.185 289.79 645.311 268.516 696.488 280.672C766.349 297.266 795.718 367.287 778.161 432.7C776.514 438.837 769.731 461.794 766.22 465.767C756.469 476.802 737.17 492.432 724.46 500.041C726.951 496.227 740.437 478.04 735.955 474.86C735.069 474.899 734.588 474.742 734.014 475.618C727.777 485.48 722.063 496.018 714.691 505.145C708.655 511.727 698.886 514.423 690.967 518.148C688.102 519.495 678.782 521.94 679.872 526.258C680.695 529.675 684.753 530.025 687.502 528.937C735.563 509.912 775.57 472.809 806.925 432.501C809.648 429.001 812.503 425.131 814.605 421.294C811.337 414.783 806.521 410.123 805.615 401.907C804.96 395.966 806.367 390.018 810.055 385.29C813.696 380.684 819.052 377.754 824.895 377.174C827.799 376.901 830.915 377.064 833.25 378.918C833.777 380.016 834.212 380.714 833.751 382.037C831.136 389.538 819.003 390.124 813.033 393.366C811.568 394.162 810.776 397.828 810.583 399.459C808.747 415.049 824.825 413.086 827.244 416.379C826.792 417.887 826.121 419.294 826.564 420.71C828.058 422.133 827.2 421.71 829.229 422.034C831.95 421.119 832.653 419.171 834.038 416.673C840.84 417.471 852.091 419.318 858.71 420.713C850.557 435.103 840.479 434.902 826.155 433.058C823.544 435.643 816.383 445.253 813.292 448.879C801.862 462.287 790.18 475.763 776.915 487.428C758.068 504.942 735.867 521.11 712.904 532.792C707.608 535.486 684.858 543.881 683.061 547.905C682.755 548.589 682.634 549.327 682.993 549.994C683.581 551.088 684.806 551.936 686.021 552.198C691.454 553.371 713.32 541.47 719.298 538.451C691.152 569.538 662.448 589.242 627.907 611.98C612.406 622.361 596.636 632.334 580.612 641.888C574.916 658.161 570.212 685.952 573.297 702.668C575.92 718.998 586.015 731.167 601.347 737.21C605.282 738.761 613.797 739.757 613.146 745.148C612.504 750.462 610.654 753.816 606.69 757.304C556.833 747.797 547.095 713.755 556.18 667.806C556.773 664.809 561.113 651.294 559.642 649.429C552.662 640.583 550.187 655.592 549.138 659.863C517.666 677.245 485.797 693.898 453.557 709.81C443.442 704.673 426.928 692.434 418.172 684.813C357.381 631.904 309.718 558.75 302.919 476.996C297.606 413.099 312.922 345.994 354.855 296.484C378.542 268.518 410.639 246.906 447.713 243.704Z"/><path fill="#6C0F23" d="M542.373 383.22C564.156 381.223 580.905 401.736 583.248 421.964C584.978 438.067 580.32 454.206 570.275 466.911C561.318 478.044 551.191 483.434 537.122 484.89C527.737 485.126 518.587 481.932 511.389 475.905C479.515 449.135 497.981 386.528 542.373 383.22Z"/><path fill="#FEFEFE" d="M550.419 389.031C552.956 389.556 554.905 390.203 557.181 391.327C589.619 407.347 582.362 457.468 554.429 474.234C551.054 476.26 548.469 477.267 544.801 478.467C541.597 479.335 539.472 479.628 536.168 479.371C537.55 477.486 544.668 474.215 547.061 471.9C556.247 462.883 562.586 450.575 565.41 438.04C569.983 417.74 567.593 401.687 550.419 389.031Z"/><path fill="#FEFEFE" d="M550.111 407.462C564.606 407.449 559.804 429.141 549.472 435.524C534.984 435.591 538.934 413.867 550.111 407.462Z"/><path fill="#FEFEFE" d="M505.094 416.746C512.711 422.617 520.468 428.304 528.357 433.803C525.54 434.55 522.299 435.194 519.423 435.833C513.082 437.011 506.752 438.247 500.434 439.541C500.429 431.627 502.263 424.088 505.094 416.746Z"/><path fill="#6C0F23" d="M397.502 352.162C450.01 347.429 448.504 435.275 397.354 447.256C342.207 453.563 347.761 358.997 397.502 352.162Z"/><path fill="#FEFEFE" d="M401.785 356.708C406.025 356.916 408.643 357.588 412.653 358.759C391.879 359.126 382.093 372.93 376.012 391.169C382.795 395.443 389.683 399.547 396.67 403.478C388.406 405.131 380.449 406.833 372.376 409.271C372.154 414.568 372.189 419.32 373.159 424.546C374.696 431.297 376.468 434.028 380.03 440.004C356.419 423.869 359.243 391.232 375.621 370.502C382.204 362.169 391.19 357.626 401.785 356.708Z"/><path fill="#FEFEFE" d="M415.067 377.503C428.387 376.984 424.627 397.96 414.479 403.898C402.18 403.934 404.014 383.642 415.067 377.503Z"/><path fill="#6C0F23" d="M407.554 473.073C420.969 471.557 422.696 485.359 436.35 487.091C447.968 488.603 457.414 480.672 468.914 481.138C480.345 481.6 485.841 488.63 484.405 499.88C483.489 507.061 478.031 512.338 472.621 516.619C471.648 517.279 470.653 517.907 469.637 518.499C448.257 531.064 414.516 525.587 402 502.846C396.051 492.037 395.277 479.631 407.554 473.073Z"/><path fill="#FEFEFE" d="M465.23 488.11C470.368 487.681 476.104 488.325 477.741 494.112C476.578 499.726 465.494 497.404 462.113 501.445C462.27 503.069 462.015 502.265 463.42 503.739C466.688 504.504 474.954 501.141 478.495 499.935C471.467 513.044 462.465 516.637 448.11 518.514C433.301 518.985 426.198 517.291 414.047 508.572C425.678 492.377 430.5 495.631 447.857 493.097C450.83 492.663 460.435 489.088 465.23 488.11Z"/><path fill="#F29291" d="M536.315 487.147C551.334 485.573 570.823 492.627 574.046 509.102C574.956 513.752 573.93 518.571 571.205 522.446C566.794 528.691 560.304 530.61 553.28 531.891C543.722 532.683 535.415 531.326 527.074 526.115C517.232 519.966 510.694 506.662 518.262 496.152C522.433 490.36 529.527 488.238 536.315 487.147Z"/><path fill="#F29291" d="M338.065 432.608C345.652 432.005 353.239 433.779 359.772 437.685C376.628 447.705 383.747 471.468 358.639 476.94C324.65 479.619 304.326 439.251 338.065 432.608Z"/><path fill="#6C0F23" d="M657.455 294.693C672.382 292.801 690.568 296.035 704.394 301.541C725.15 309.962 741.764 326.204 750.652 346.765C754.451 355.682 759.961 377.544 757.981 388.485C757.796 389.51 756.492 389.983 755.516 390.286C753.955 389.512 754.643 390.067 753.685 388.241C753.159 369.137 750.329 353.457 740.051 337.27C725.194 313.733 698.478 300.085 670.946 299.283C666.61 299.157 654.312 300.095 651.427 299.458C650.034 298.095 650.479 298.889 650.045 296.989L650.729 296.037C653.024 295.032 654.961 294.984 657.455 294.693Z"/><path fill="#6C0F23" d="M413.617 315.703C418.224 315.174 425.805 316.275 429.713 318.832C433.237 321.138 433.813 325.714 430.829 328.821C425.273 334.606 415.547 336.287 407.875 336.667C376.875 338.105 387.756 318.084 413.617 315.703Z"/><path fill="#6C0F23" d="M554.51 348.093C571.936 347.213 598.187 372.855 581.141 377.502C568.833 376.742 555.418 368.436 549.377 357.568C546.83 352.986 550.156 349.375 554.51 348.093Z"/><path fill="#6C0F23" d="M753.724 419.663C759.396 422.409 755.582 430.32 754.497 435.072C753.828 438.001 752.332 440.977 750.291 443.204C748.048 442.827 748.62 443.263 747.37 441.848C746.354 437.216 751.269 423.629 753.724 419.663Z"/><path fill="#6C0F23" d="M677.984 548.222C679.524 548.786 679.54 549.018 679.521 550.44C677.3 555.071 665.728 564.095 661.327 567.763C659.542 567.215 659.529 567.025 659.399 565.388C661.343 561.483 673.926 551.503 677.984 548.222Z"/><path fill="#6C0F23" d="M630.701 586.43C632.059 586.269 631.558 586.241 632.871 586.639C635.01 591.146 620.779 598.871 617.332 600.519C616.289 600.169 616.474 600.125 615.557 599.354L615.503 598.174C617.796 594.397 626.813 588.969 630.701 586.43Z"/><path fill="#6C0F23" d="M582.476 628.395C583.318 628.764 583.553 629.102 584.291 629.728C585.189 633.779 578.764 636.43 575.642 637.575C573.964 635.946 574.395 636.873 573.909 634.906C575.18 631.843 579.463 630.076 582.476 628.395Z"/><path fill="#6C0F23" d="M578.719 617.434C580.234 617.245 579.689 617.287 581.276 617.725C583.164 620.917 576.903 624.725 574.533 626.22C572.808 625.465 572.477 625.113 571.979 623.496C572.892 620.692 576.195 619.062 578.719 617.434Z"/><path fill="#6C0F23" d="M596.535 614.278C598.443 614.889 597.673 614.375 598.982 615.804L598.858 617.234C596.998 620.346 594.734 621.569 591.692 623.295C589.89 622.858 589.525 622.418 589.301 620.799C590.708 617.913 593.877 616.084 596.535 614.278Z"/><path fill="#6C0F23" d="M563.71 632.383C565.349 632.409 566.073 632.671 566.753 634.042C566.223 636.831 562.82 639.015 560.586 640.661C558.58 640.598 557.632 640.656 557.2 638.658C558.37 635.611 561.06 634.09 563.71 632.383Z"/><path fill="#FEFEFE" d="M191.484 247.851C195.945 248.157 200.298 247.578 201.735 252.192C202.222 253.758 207.656 255.074 209.349 255.333C219.848 256.941 230.44 258.346 240.948 259.922C246.646 260.745 252.022 262.346 257.744 262.088C260.712 261.954 261.352 259.125 262.555 258.787C265.557 257.944 271.409 259.518 274.555 260.148C270.143 276.118 266.124 293.51 262.016 309.707C256.303 307.915 252.758 307.765 247.374 310.333C243.424 309.536 212.43 304.43 210.927 304.885L210.389 305.917C212.954 310.441 240.597 310.715 243.87 313.261C243.595 313.963 242.618 315.615 242.166 315.66C236.11 316.264 213.264 309.41 209.369 312.094L209.579 313.034C212.516 315.397 236.087 318.099 241.485 318.917C241.464 331.114 245.557 334.304 254.071 341.597C251.605 352.007 249.084 362.405 246.511 372.789L162.258 357.677L166.521 341.296C168.973 340.785 171.625 340.059 174.074 339.445L172.975 345.961C177.949 347.448 187.556 349.113 192.782 349.581C193.536 346.792 194.334 344.015 195.176 341.251C196.214 337.796 197.817 334.194 196.123 331.047C192.977 328.248 185.79 328.081 181.218 327.466L178.447 322.185C180.525 320.122 181.741 318.484 183.506 316.19C188.84 317.126 195.488 318.215 200.804 318.685C202.046 314.732 205.848 302.981 204.398 299.849C201.62 297.298 191.998 296.94 186.988 295.645L186.21 295.439C185.71 290.643 184.748 289.84 181.856 286.076C185.323 274.659 188.522 259.701 191.484 247.851Z"/><path fill="#6ECD92" d="M210.147 267.569C212.926 267.059 213.655 264.375 216.288 264.246C217.916 265.501 217.414 264.728 218.024 266.52C216.282 270.095 212.84 271.179 211.873 273.918C211.687 277.876 210.086 284.712 208.892 288.476C202.175 287.053 195.297 286.555 188.81 284.962C189.362 279.593 191.116 274.613 192.037 269.315C192.998 266.715 192.572 266.591 194.402 265.135C197.259 264.561 201.078 265.673 204.102 266.146L202.23 269.144C203.99 269.302 205.774 269.48 207.533 269.616C209.423 269.404 209.426 269.069 210.147 267.569Z"/><path fill="#6C0F23" d="M188.81 284.962C189.362 279.593 191.116 274.613 192.037 269.315L194.619 269.903L194.588 272.91C196.481 276.49 198.319 280.1 200.102 283.736L200.917 283.957C203.045 281.59 205.488 279.526 208.176 277.823C209.646 275.862 209.988 275.473 211.873 273.918C211.687 277.876 210.086 284.712 208.892 288.476C202.175 287.053 195.297 286.555 188.81 284.962Z"/><path fill="#FEFEFE" d="M194.588 272.91C196.481 276.49 198.319 280.1 200.102 283.736C197.666 283.493 195.126 283.103 192.69 282.772C193.267 279.326 193.783 276.307 194.588 272.91Z"/><path fill="#FEFEFE" d="M200.917 283.957C203.045 281.59 205.488 279.526 208.176 277.823C207.74 279.926 207.501 282.472 206.118 283.981C204.418 284.821 202.846 284.288 200.917 283.957Z"/><path fill="#6C0F23" d="M192.037 269.315C192.998 266.715 192.572 266.591 194.402 265.135C197.259 264.561 201.078 265.673 204.102 266.146L202.23 269.144C199.757 268.574 198.801 268.234 196.258 268.341L195.764 268.942L194.619 269.903L192.037 269.315Z"/><path fill="#FEFEFE" d="M195.764 268.942L196.258 268.341C198.801 268.234 199.757 268.574 202.23 269.144C203.99 269.302 205.774 269.48 207.533 269.616C206.911 271.37 204.459 273.403 203.017 274.801C200.798 272.225 199.086 269.704 195.764 268.942Z"/><path fill="#6C0F23" d="M218.528 273.342C221.633 273.3 233.344 275.174 236.894 275.793C244.494 277.119 254.823 278.16 262.142 279.935C263.283 281.162 262.901 280.924 262.968 283.142C254.515 282.461 228.643 277.917 219.162 275.826C218.646 275.712 218.632 274.132 218.528 273.342Z"/><path fill="#6C0F23" d="M202.371 335.382C208.441 335.378 239.117 340.57 246.559 342.647C247.049 342.784 247.162 344.447 247.293 345.208C238.468 344.427 212.811 340.067 202.962 337.995C202.475 337.893 202.462 336.162 202.371 335.382Z"/><path fill="#6C0F23" d="M201.477 341.4C210.821 343.504 223.253 344.455 232.911 346.373C236.928 347.17 241.151 347.359 245.111 348.624C245.701 349.947 245.419 349.809 245.044 351.548C235.668 349.576 224.3 348.576 214.718 346.765C210.427 345.954 205.863 345.694 201.681 344.347C200.839 343.085 201.14 343.389 201.477 341.4Z"/><path fill="#6C0F23" d="M217.041 279.442C220.943 279.467 260.149 285.661 261.384 286.745L261.388 289.158C254.471 288.757 225.649 284.02 217.55 281.822C217.017 281.678 217.113 280.302 217.041 279.442Z"/><path fill="#6C0F23" d="M204.102 266.146C205.944 266.551 208.397 267.015 210.147 267.569C209.426 269.069 209.423 269.404 207.533 269.616C205.774 269.48 203.99 269.302 202.23 269.144L204.102 266.146Z"/><path fill="#E75758" d="M357.825 636.383C359.278 637.314 366.895 647.213 368.433 649.149C336.101 669.762 331.354 692.442 363.384 717.015C361.966 721.544 357.884 730.248 352.26 730.381C336.44 720.447 316.11 698.705 320.189 678.231C323.744 660.38 343.498 645.925 357.825 636.383Z"/><path fill="#E75758" d="M232.404 386.294C237.942 387.472 245.885 389.186 251.438 389.633C254.23 395.184 257.066 403.265 259.912 409.432C267.86 426.807 278.407 442.871 291.189 457.072C291.38 465.104 292.048 472.721 292.545 480.725C290.433 479.373 283.758 471.661 281.771 469.329C259.823 443.579 245.515 417.159 232.404 386.294Z"/><path fill="#FEFEFE" d="M822.916 359.797C847.011 364.157 871.369 367.373 895.499 371.909C893.116 383.88 891.807 396.597 889.576 408.615C889.121 411.066 888.255 414.897 886.045 415.976C884.579 416.692 883.282 417.195 881.627 417.011C873.957 416.159 865.968 414.576 858.358 413.246C847.796 411.399 837.258 409.689 826.752 407.619C823.709 406.949 819.692 406.009 818.121 403.034C815.275 397.648 828.259 395.641 830.551 397.113L830.702 398.197C828.518 401.948 827.353 399.256 821.938 400.911L821.71 401.503C825.171 403.723 833.102 404.816 837.415 405.612C847.969 407.398 865.828 411.177 875.795 411.8C877.147 406.972 877.517 404.076 878.187 399.149C881.069 399.61 885.719 400.926 887.874 398.644C886.246 396.06 881.884 395.908 879.06 395.486C879.536 391.868 880.106 388.263 880.769 384.675C884.352 385.406 886.657 386.38 889.92 384.947L890.15 384.151C887.965 381.699 884.564 381.762 881.259 381.333C881.429 380.261 881.593 379.187 881.75 378.113C882.098 375.883 882.574 374.284 880.797 372.57C878.18 373.706 878.043 378.178 877.657 380.734C874.599 379.983 870.328 379.339 867.142 378.768L867.224 378.197C867.573 375.621 868.564 372.022 866.669 369.989L865.752 370.545C864.11 372.927 863.956 375.402 863.43 378.303C859.713 377.495 856.051 376.875 852.304 376.224C852.798 373.751 854.283 369.548 851.807 367.952L850.686 368.555C849.119 370.605 849.092 373.075 848.712 375.73C845.53 374.863 841.205 374.368 837.844 373.884L838.125 372.003C838.507 369.492 839.184 366.757 837.346 364.648L836.452 365.052C835.078 366.873 835.026 368.619 834.622 370.912C828.696 369.089 827.177 369.274 821.225 370.228L822.916 359.797Z"/><path fill="#FEFEFE" d="M644.813 810.708C651.814 810.075 657.967 811.665 664.335 814.311C660.331 829.297 654.592 844.866 641.394 854.103C637.432 856.208 633.838 856.109 630.787 852.293C622.485 841.909 623.175 830.239 623.661 817.706C629.86 812.809 637.14 811.451 644.813 810.708Z"/><path fill="#FEFEFE" d="M386.415 725.652C390.323 727.465 393.925 729.455 397.7 731.507C388.186 745.529 395.286 757.173 403.865 768.395C398.348 777.808 393.767 784.957 387.141 793.521L380.88 800.95C378.465 797.548 376.696 795.899 373.702 792.939C382.028 777.174 385.814 756.234 379.41 739.147C383.419 733.973 384.464 731.824 386.415 725.652Z"/><path fill="#E75758" d="M829.805 341.128C831.491 340.973 832.824 340.67 834.39 341.236C836.967 351.601 845.186 355.388 849.399 343.415C857.701 344.842 866.072 346.596 874.405 348.091C881.768 368.145 887.422 351.697 891.829 350.267C893.511 350.71 895.028 351.632 896.196 352.922C897.979 354.926 897.579 356.947 897.324 359.424L896.085 368.109C891.265 367.117 884.31 366.277 879.287 365.494L847.247 360.266C839.696 359.058 830.879 357.871 823.49 356.251C824.636 350.534 823.765 343.585 829.805 341.128Z"/><path fill="#FEFEFE" d="M637.958 739.623L645.407 739.441C645.469 754.134 654.214 762.839 667.903 765.91C668.571 783.958 668.243 792.513 665.208 810.395C660.598 808.278 658.613 807.7 653.594 807.194C653.467 785.794 648.485 765.15 634.605 748.367C634.5 745.673 633.705 743.558 634.314 741.071C635.629 739.544 635.357 740.029 637.958 739.623Z"/><path fill="#6ECD92" d="M232.618 227.049C243.087 226.933 244.575 233.265 243.783 242.229C249.385 242.824 254.118 243.334 259.521 244.958C259.676 250.44 258.948 253.44 257.575 258.75C250.334 257.885 242.165 256.456 234.88 255.357C225.086 253.819 215.276 252.386 205.451 251.059C205.465 245.63 205.913 242.651 207.355 237.416C211.93 237.333 218.579 238.682 223.596 239.072C225.471 232.607 226.142 229.846 232.618 227.049Z"/><path fill="#6C0F23" d="M233.486 230.049C236.653 229.479 239.694 231.553 240.318 234.711C240.942 237.868 238.921 240.944 235.774 241.622C233.69 242.072 231.526 241.362 230.113 239.765C228.7 238.169 228.258 235.934 228.957 233.92C229.656 231.906 231.387 230.426 233.486 230.049Z"/><path fill="#FEFEFE" d="M233.507 233.703C234.638 233.128 236.021 233.586 236.586 234.722C237.15 235.858 236.68 237.236 235.539 237.79C234.412 238.338 233.056 237.875 232.498 236.753C231.941 235.632 232.391 234.271 233.507 233.703Z"/><path fill="#FEFEFE" d="M348.581 789.449C360.813 789.47 370.715 794.105 377.667 804.218C371.52 810.494 367.353 813.986 360.094 818.787C357.084 820.521 345.872 826.923 341.824 825.027C340.05 824.195 338.588 818.93 338.243 816.868C336.492 806.41 342.77 797.463 348.581 789.449Z"/><path fill="#C38A6E" d="M158.708 340.259C160.329 340.593 160.959 340.789 162.54 341.323C164.259 346.085 156.257 356.154 159.843 360.613C163.667 361.927 180.963 364.426 186.044 365.371L225.328 372.528C232.299 373.82 242.123 375.995 248.943 376.694C252.123 368.232 254.266 350.935 257.246 343.976L258.064 343.874C260.59 346.016 260.352 346.384 259.856 349.619C258.523 357.226 254.388 375.694 252.039 382.829C234.172 380.207 214.028 375.708 195.986 372.804C189.091 371.695 157.676 366.353 153.526 364.316C152.582 361.54 157.696 344.064 158.708 340.259Z"/><path fill="#FEFEFE" d="M667.971 741.766C674.339 743.982 675.619 749.188 676.506 755.447C679.156 774.156 678.877 794.656 675.364 813.243C673.93 821.026 671.642 828.627 668.543 835.909C663.906 846.568 658.763 854.052 647.787 858.401C645.715 858.566 644.918 858.741 642.921 858.335C642.939 857.348 644.836 856.461 645.738 855.69C674.845 830.828 676.035 775.195 667.971 741.766Z"/><path fill="#FEFEFE" d="M417.98 745.905C421.388 749.608 420.937 753.104 419.418 757.68C411.914 780.275 375.361 836.954 349.001 832.221C347.703 831.468 346.684 831.096 346.01 829.795C347.081 828.411 349.343 828.411 351.099 827.703C380.983 815.644 409.07 776.363 417.98 745.905Z"/><path fill="#E75758" d="M252.759 315.07C262.484 314.504 269.217 322.472 271.088 331.528C272.396 337.859 270.296 343.216 266.76 348.447C266.751 342.024 262.835 339.355 257.928 335.758C251.392 330.967 242.14 321.058 252.759 315.07Z"/><path fill="#FEFEFE" d="M370.703 716.31C378.309 719.617 381.066 723.58 376.303 731.724C371.912 739.233 364.406 744.056 356.002 746.141C352.41 745.985 349.033 743.469 347.975 740.044C348.074 739.448 348.531 737.933 349.214 737.922C361.725 737.72 369.811 728.842 370.703 716.31Z"/><path fill="#FEFEFE" d="M401.087 733.205C405.854 735.378 410.763 739.234 414.679 742.667C412.487 749.425 410.617 754.57 407.47 760.924L405.5 764.352C397.553 754.909 394.518 744.53 401.087 733.205Z"/><path fill="#FEFEFE" d="M618.417 737.793C622.126 738.623 623.684 739.069 627.227 740.422C630.027 753.354 625.889 764.771 613.652 770.77C611.205 770.082 606.161 767.755 605.594 765.034C606.686 763.526 608.193 764.33 609.734 763.6C619.816 758.825 621.184 747.229 618.417 737.793Z"/><defs><linearGradient id="gradient_0" gradientUnits="userSpaceOnUse" x1="278.72784" y1="286.11749" x2="253.85023" y2="276.00159"><stop offset="0" stop-color="#C2866C"/><stop offset="1" stop-color="#CAA580"/></linearGradient></defs><path fill="url(#gradient_0)" d="M261.907 253.675C265.265 253.301 279.395 255.463 283.333 256.063C282.151 262.711 280.062 270.139 278.404 276.741L269.122 313.317L268.842 313.745C267.449 313.724 266.713 312.691 265.318 311.597C269.15 293.918 274.861 276.315 278.003 258.532C278.493 255.756 264.703 256.227 261.907 253.675Z"/><path fill="#FEFEFE" d="M649.399 739.328C655.383 739.333 658.018 739.407 663.787 740.847C665.772 748.62 666.6 754.077 667.524 761.909C655.862 758.82 649.487 751.436 649.399 739.328Z"/><path fill="#FEFEFE" d="M641.257 796.637C643.3 796.384 646.971 796.467 649.145 796.451C649.444 799.606 649.426 803.281 649.484 806.5C642.625 806.348 638.372 806.834 631.874 808.779C629.48 809.683 626.842 810.824 624.45 811.801C624.744 808.518 624.902 805.348 625.067 802.058C630.83 799.143 634.958 797.688 641.257 796.637Z"/><path fill="#E75758" d="M161.697 305.08C167.626 304.709 177.699 305.654 177.106 313.861C175.444 317.496 172.315 316.934 168.994 316.472C164.51 315.742 159.865 315.939 155.342 316.069C151.864 309.624 155.736 306.898 161.697 305.08Z"/><path fill="#E75758" d="M158.037 322.586C161.399 322.357 175.623 321.862 174.526 329.669C174.293 331.329 170.844 333.47 169.156 334.149C163.815 334.833 157.342 334.49 153.815 329.808C151.435 326.649 155.73 323.76 158.037 322.586Z"/><path fill="#FEFEFE" d="M188.351 299.339C192.537 300.268 197.542 300.975 201.825 301.688C200.735 306.245 199.516 310.771 198.17 315.259C193.763 314.615 189.08 313.713 184.668 312.945C186.1 308.182 187.243 304.22 188.351 299.339Z"/><path fill="#FEFEFE" d="M643.851 783.678C645.174 783.477 645.134 783.394 646.382 783.807C647.817 785.897 648.076 789.414 648.578 792.131C639.85 792.432 636.822 792.685 628.835 795.946L625.522 797.36L625.073 789.462C631.726 786.2 636.547 784.625 643.851 783.678Z"/><path fill="#FEFEFE" d="M180.95 330.763C185.769 331.273 189.08 331.843 193.84 332.812L190.123 346.242C185.703 345.267 181.243 344.521 176.786 343.736C178.06 338.89 179.265 335.442 180.95 330.763Z"/><path fill="#FEFEFE" d="M640.175 770.561C641.436 770.435 641.395 770.365 642.568 770.788C644.266 773.137 644.754 776.325 645.507 779.236C637.997 780.322 634.9 780.6 627.89 783.51C626.575 784.182 626.537 784.375 625.111 784.291C623.809 783.146 623.515 780.55 623.09 778.727C629.572 774.338 632.687 772.598 640.175 770.561Z"/><path fill="#C38A6E" d="M186.338 241.918C190.386 243.119 199.31 242.949 201.888 245.237C200.639 245.523 191.141 244.445 188.977 244.259C186.428 254.174 183.991 264.118 181.667 274.089C180.899 277.193 180.175 284.216 176.961 284.684L176.183 283.906C175.539 280.61 184.769 247.409 186.338 241.918Z"/><path fill="#E75758" d="M167.032 289.577C171.123 289.388 175.309 289.136 178.219 292.603C180.026 294.756 179.991 297.806 177.336 299.259C175.788 300.106 174.219 299.291 172.607 298.866C168.831 298.116 161.583 299.079 159.81 296.596C160.145 293.286 164.336 290.801 167.032 289.577Z"/><path fill="#FEFEFE" d="M367.82 757.19C370.86 757.057 375.2 757.756 378.178 758.309C378.084 761.542 377.686 764.682 377.33 767.895L372.558 766.238C368.424 764.953 364.152 764.788 359.86 764.516L360.115 757.719L367.82 757.19Z"/><path fill="#FEFEFE" d="M354.853 778.454C361.183 779.176 367.972 780.249 373.387 783.825C372.342 786.064 371.012 788.528 369.872 790.757C364.275 786.845 358.128 785.633 351.484 785.221L354.853 778.454Z"/><path fill="#FEFEFE" d="M358.724 768.497C365.855 768.708 370.154 769.933 376.66 772.615C376.061 774.927 375.408 776.928 374.666 779.183C367.355 776.118 364.393 775.105 356.548 774.818C357.347 772.849 358.05 770.537 358.724 768.497Z"/><path fill="#FEFEFE" d="M851.72 379.794C855.639 380.351 859.213 381.045 863.1 381.814L861.286 392.515L850.089 390.311L851.72 379.794Z"/><path fill="#E75758" d="M633.861 753.419C637.02 757.164 639.084 761.997 641.147 766.438C635.067 768.129 631.974 768.847 626.735 772.19C624.973 773.204 622.465 774.363 620.596 775.299C627.845 767.729 631.688 763.853 633.861 753.419Z"/><path fill="#FEFEFE" d="M849.668 393.894C853.107 394.666 857.222 395.317 860.736 395.967C860.456 398.872 859.604 402.94 859.069 405.897C855.323 405.208 851.608 404.722 847.838 404.207C848.325 400.748 848.935 397.309 849.668 393.894Z"/><path fill="#FEFEFE" d="M835.319 392.005C838.839 391.611 842.439 392.61 845.909 393.346C845.445 397.098 845.115 399.817 844.249 403.481C840.773 402.746 836.797 402.265 833.244 401.758C833.64 399.334 834.247 393.857 835.319 392.005Z"/><path fill="#FEFEFE" d="M866.746 382.347L876.975 384.016C876.493 387.993 876.021 390.968 875.228 394.89L864.726 393.128C865.324 389.521 865.998 385.926 866.746 382.347Z"/><path fill="#FEFEFE" d="M864.309 396.47C867.618 397.19 871.39 397.811 874.754 398.446L873.086 408.575C870.217 407.773 865.807 407.115 862.757 406.573C863.069 403.49 863.802 399.597 864.309 396.47Z"/><path fill="#E75758" d="M375.799 742.945C377.432 744.8 377.917 751.822 378.194 754.401C372.152 753.289 368.517 753.219 362.375 753.537C361.582 753.539 360.599 753.453 359.79 753.407C360.009 752.269 365.632 749.85 366.977 749.171C370.446 747.421 372.876 745.464 375.799 742.945Z"/><path fill="#6ECD92" d="M842.375 330.714L844.501 331.26C848.045 334.641 845.792 343.457 842.753 346.654C841.58 346.22 841.194 345.965 840.101 345.331C837.555 341.825 839.978 333.765 842.375 330.714Z"/><path fill="#6ECD92" d="M884.005 337.42C889.468 339.404 886.155 350.618 883.652 353.304C882.953 353.045 881.354 352.615 881.053 352.088C878.675 347.931 880.878 340.046 884.005 337.42Z"/><path fill="#FEFEFE" d="M840.721 377.775L848.155 379.282C847.776 382.562 847.061 386.396 846.524 389.703L839.024 388.734C841.263 383.719 841.085 383.12 840.721 377.775Z"/></svg>