<?xml version="1.0" encoding="UTF-8" standalone="no"?>
<svg
   width="1024"
   height="1024"
   viewBox="0 0 1024 1024"
   version="1.1"
   id="svg53"
   sodipodi:docname="heart.svg"
   inkscape:version="1.4.3 (0d15f75042, 2025-12-25)"
   xmlns:inkscape="http://www.inkscape.org/namespaces/inkscape"
   xmlns:sodipodi="http://sodipodi.sourceforge.net/DTD/sodipodi-0.dtd"
   xmlns="http://www.w3.org/2000/svg"
   xmlns:svg="http://www.w3.org/2000/svg">
  <defs
     id="defs53" />
  <sodipodi:namedview
     id="namedview53"
     pagecolor="#ffffff"
     bordercolor="#000000"
     borderopacity="0.25"
     inkscape:showpageshadow="2"
     inkscape:pageopacity="0.0"
     inkscape:pagecheckerboard="0"
     inkscape:deskcolor="#d1d1d1"
     inkscape:zoom="0.37357887"
     inkscape:cx="-1311.6374"
     inkscape:cy="40.152164"
     inkscape:window-width="2560"
     inkscape:window-height="1300"
     inkscape:window-x="0"
     inkscape:window-y="0"
     inkscape:window-maximized="1"
     inkscape:current-layer="svg53" />
  <path
     fill="#6E0C23"
     d="M481.841 90.7127C497.433 88.7009 523.749 92.5393 538.821 96.6289C588.566 110.127 628.565 143.892 653.931 188.376C705.554 171.527 755.541 159.305 809.362 174.81C851.315 186.896 885.784 212.695 906.798 251.136C929.358 292.406 930.935 342.86 918.06 387.346C906.94 426.356 886.177 460.704 860.812 492.016C826.325 534.588 778.047 569.329 730.101 595.69C731.842 602.695 734.925 610.3 737.768 616.963C750.929 647.81 766.603 671.219 795.036 689.746C796.426 679.047 797.768 668.067 800.483 657.617C803.107 647.518 818.566 654.43 824.931 656.912C830.132 648.068 846.958 657.952 849.971 664.726C863.711 671.399 869.153 673.266 857.934 686.854C859.449 691.101 861.254 695.239 863.336 699.239C864.812 702.049 871.057 711.819 868.698 714.182C862.108 720.785 848.74 725.683 840.102 728.707C824.931 734.019 807.04 734.364 791.464 730.929C788.324 730.206 781.886 727.052 779.098 725.607C741.828 706.294 717.625 674.89 701.034 637.074C697.653 629.368 694.623 622.377 692.053 614.335C638.263 642.705 582.799 667.78 525.968 689.422C534.146 715.275 564.96 750.623 588.418 765.128C590.27 763.694 593.359 761.036 595.69 761.087C596.903 761.114 599.974 762.489 600.926 763.125C609.596 768.918 624.04 776.409 632.127 781.521C641.311 787.327 692.655 814.808 696.644 819.24C698.174 825.121 692.603 844.309 690.451 850.842C675.267 896.932 650.917 941.457 606.04 964.417C585.354 975.589 561.28 980.214 538.27 973.581C524.448 969.876 513.898 956.085 518.204 941.563C520.517 933.76 528.728 925.518 533.04 918.493C537.994 910.421 543.507 901.563 547.388 892.93C553.259 879.871 556.452 865.429 559.664 851.544C561.138 845.233 561.799 838.36 563.854 832.301C562.044 829.667 560.143 826.977 558.372 824.316C551.687 814.273 547.16 810.515 552.905 798.563C541.895 790.033 534.58 783.924 524.848 774.049C506.446 754.28 491.882 731.26 481.899 706.165C467.548 710.756 445.978 720.839 431.25 722.797C427.971 723.233 404.558 700.207 401.213 695.966C395.731 723.664 389.612 751.233 382.86 778.649C379.302 793.425 375.583 806.897 372.369 821.942C382.277 827.355 380.827 832.177 380.253 842.099C378.057 880.079 372.934 917.781 369.611 955.66C369.032 958.975 367.937 962.781 364.026 963.331C354.666 964.646 343.982 963.406 334.643 962.103C289.515 956.185 246.091 941.032 207.078 917.59C188.88 906.45 153.692 881.038 148.941 859.625C147.524 853.526 148.665 847.112 152.099 841.876C168.414 816.979 208.944 838.174 230.137 840.068C233.369 840.356 252.904 838.717 257.72 838.361C271.116 837.372 290.138 837.025 303.001 834.388C304.148 830.143 308.022 821.467 310.68 817.914C314.711 812.528 319.171 811.655 325.253 810.851C333.895 781.788 341.252 749.786 348.334 720.267C351.68 706.82 354.788 693.316 357.656 679.759C359.344 672.128 361.363 664.293 362.459 656.587C359.432 652.26 356.12 648.15 352.919 643.946C312.918 591.408 282.722 529.96 268.719 465.289C265.66 451.165 264.241 435.48 262.74 421.078C252.711 427.334 241.898 433.981 232.489 441.078C194.946 469.394 160.92 508.66 142.677 552.235C143.873 561.17 151.978 587.284 151.806 593.1C149.41 597.509 126.714 604.747 121.537 603.372C118.643 601.063 116.757 591.528 115.692 587.464C112.194 594.128 106.179 604.594 101.41 609.788C96.1491 615.52 55.4372 591.31 59.6123 584.413C68.2978 570.341 80.9162 557.78 92.9053 546.379C94.8924 544.129 103.966 538.837 105.144 536.582C142.34 465.396 189.263 412.957 262.306 375.322C266.738 301.745 289.867 231.242 337.198 174.046C373.155 130.596 424.809 95.9549 481.841 90.7127Z"
     id="path2" />
  <path
     fill="#E85558"
     d="M484.927 104.294C501.23 102.535 527.696 106.441 543.187 111.704C575.238 122.482 603.494 142.287 624.559 168.738C631.643 177.525 635.606 182.73 640.597 192.937C637.069 194.897 632.619 196.742 628.88 198.319C601.177 210.005 573.758 223.463 548.778 240.261C543.522 243.795 535.694 246.908 532.745 252.634C530.596 256.809 534.109 260.789 538.394 260.874C544.134 261.142 548.178 256.505 552.688 253.721C623.232 210.177 721.022 165.118 805.298 187.882C842.382 197.711 874.012 221.93 893.17 255.168C914.868 293.301 917.639 339.604 905.656 381.308C879.158 473.527 806.262 537.178 725.838 582.985C716.919 552.609 715.676 519.228 713.811 487.924C712.335 482.49 702.045 482.537 701.32 487.851C699.286 502.752 701.863 523.365 704.176 538.047C714.118 601.153 734.686 674.031 796.782 704.543C798.509 705.392 800.069 705.112 801.659 704.288C805.768 698.77 808.759 671.902 810.176 663.404C814.441 664.337 816.595 665.226 820.503 666.968C816.372 675.607 810.293 682.968 807.204 691.842C806.355 694.279 808.729 696.767 811.213 697.112C817.575 695.016 825.244 677.815 829.568 671.309C830.647 669.47 831.785 667.066 833.462 665.897C835.322 665.386 837.812 666.595 839.765 667.284C836.819 673.102 828.555 683.449 824.446 689.242C821.33 693.634 814.288 700 811.44 704.739C811.004 705.774 811.044 708.4 811.779 709.178C820.744 718.647 842.656 700.289 848.379 695.735C850.047 700.676 852.346 705.035 854.678 709.67C843.199 716.33 828.975 720.266 815.744 720.899C795.068 721.887 780.222 713.668 764.356 701.157C758.191 696.296 752.224 691.337 746.836 685.601C730.148 667.839 717.399 644.156 708.598 621.536C697.139 592.083 690.895 561.082 687.586 529.74C687.167 525.764 686.647 510.348 683.933 508.062C682.469 506.829 679.944 505.42 677.963 505.851C676.917 506.078 676.077 506.817 675.48 507.671C669.264 516.555 679.85 563.689 682.02 576.398C675.893 580.17 669.006 583.242 663.164 587.394C662.306 588.003 662.542 589.215 662.605 590.102C665.479 594.133 679.662 584.267 683.221 582.25C685.065 588.828 686.96 595.355 688.49 602.013C681.389 605.239 673.025 609.877 665.891 613.452C653.032 619.822 640.131 626.108 627.191 632.31C585.645 652.282 542.174 669.227 499.148 685.629C477.864 693.743 456.198 700.905 435.045 709.243C425.787 702.84 408.242 686.922 400.344 678.769C334.024 610.301 285.135 518.155 277.004 422.35C266.76 301.657 321.894 163 439.675 114.197C453.699 108.38 469.861 105.533 484.927 104.294Z"
     id="path3" />
  <path
     fill="#6E0C23"
     d="M405.954 388.576C412.929 388.906 419.302 400.673 423.436 406.121C436.204 422.947 460.261 427.666 479.954 422.167C497.566 417.249 507.483 412.495 505.264 437.726C504.164 447.728 495.879 457.696 487.545 463.44C470.144 474.571 441.938 475.144 423.904 465.135C409.33 457.045 396.843 443.594 392.023 427.419C387.846 413.402 388.728 392.773 405.954 388.576Z"
     id="path4" />
  <path
     fill="white"
     d="M431.305 425.998C432.022 426.378 432.746 426.743 433.478 427.092C453.127 436.561 475.771 434.351 495.726 427.215C496.502 430.923 496.486 432.259 496.529 436.077L494.013 438.031C490.978 440.417 490.74 440.551 487.295 442.012L486.921 442.179C463.413 452.505 444.158 448.511 421.335 439.69C424.748 433.545 426.736 431.31 431.305 425.998Z"
     id="path5" />
  <path
     fill="white"
     d="M419.859 443.816C423.399 446.43 433.181 450.135 437.494 451.117C458.325 455.859 476.101 454.502 494.428 443.951C492.223 447.974 490.375 450.572 487.347 453.946C480.199 459.744 469.576 463.525 460.505 464.594C441.76 466.804 429.692 461.03 415.436 450.054C416.94 448.037 418.408 445.881 419.859 443.816Z"
     id="path6" />
  <path
     fill="#F49293"
     d="M615.178 455.683C619.63 463.146 623.762 473.23 620.252 481.357C607.203 511.576 559.489 498.09 548.097 473.223C541.665 459.181 545.904 446.008 559.802 440.019C571.578 434.946 584.9 437.574 596.504 441.622C599.56 442.679 602.362 445.297 605.433 446.223C608.902 446.625 613.974 452.03 615.595 455.07L615.178 455.683Z"
     id="path7" />
  <path
     fill="#BD323D"
     d="M605.433 446.223C608.902 446.625 613.974 452.03 615.595 455.07L615.178 455.683C611.666 451.908 609.333 449.703 605.433 446.223Z"
     id="path8" />
  <path
     fill="#6E0C23"
     d="M555.972 298.502C557.127 298.434 559.151 298.271 560.19 298.641C570.676 302.434 560.495 312.486 557.987 318.11C545.846 345.347 531.686 393.175 568.315 408.173C572.748 409.763 578.07 410.325 582.756 410.146C612.722 409.002 634.378 383.378 647.368 358.765C650.1 353.59 657.599 348.687 660.27 356.792C661.592 360.806 659.549 363.955 657.759 367.345C641.015 398.573 610.352 430.343 570.758 422.965C536.859 416.649 525.968 378.812 533.438 349.038C536.42 337.152 545.632 305.431 555.972 298.502Z"
     id="path9" />
  <path
     fill="#6E0C23"
     d="M384.474 220.474C400.282 219.941 389.735 234.357 387.183 240.187C378.408 260.232 365.974 294.495 378.366 314.941C400.838 352.018 445.045 317.517 459.12 291.262C463.833 282.671 467.812 273.122 474.473 267.418C477.333 264.968 482.389 268.9 482.569 272.111C483.497 276.345 482.419 277.603 480.377 281.211C464.408 311.03 435.694 352.21 395.729 343.526C360.808 335.937 354.865 296.104 363.37 266.794C366.26 256.837 375.606 225.846 384.474 220.474Z"
     id="path10" />
  <path
     fill="#F49293"
     d="M324.254 331.114C368.161 327.042 392.376 387.026 351.127 391.279C310.711 394.001 281.953 339.346 324.254 331.114Z"
     id="path11" />
  <path
     fill="#6E0C23"
     d="M759.038 204.238C780.329 203.422 801.477 208.053 820.478 217.694C846.593 230.863 866.42 253.851 875.609 281.618C880.474 296.76 882.631 313.514 881.768 329.378C881.567 333.076 881.76 337.236 880.066 340.519C878.655 341.824 877.406 341.66 875.438 341.817C874.046 338.854 875.414 330.453 875.605 326.781C879.029 260.989 830.737 212.403 765.743 209.985C761.869 209.841 757.395 211.699 754.717 208.224C754.467 206.285 754.314 207.185 755.21 205.43C756.579 204.269 757.243 204.393 759.038 204.238Z"
     id="path12" />
  <path
     fill="#6E0C23"
     d="M455.351 175.691C485 172.783 509.445 200.432 468.333 203.854C458.847 204.212 447.153 202.169 439.04 197.34C429.387 191.595 430.797 183.219 440.8 179.274C446.075 177.193 449.74 176.361 455.351 175.691Z"
     id="path13" />
  <path
     fill="#6E0C23"
     d="M631.556 252.603C632.662 252.538 636.138 252.331 637.122 252.465C645.115 253.775 652.604 260.64 657.427 266.763C663.5 274.474 671.824 289.053 661.676 296.794C646.584 301.754 617.27 267.611 631.556 252.603Z"
     id="path14" />
  <path
     fill="#6E0C23"
     d="M838.563 445.927C840.394 446.618 840.754 446.753 841.86 448.321C841.978 448.98 842.181 450.151 841.796 450.746C819.68 484.948 788.956 513.292 755.518 536.249C747.131 542.007 739.169 548.599 730.704 553.583C729.4 553.644 729.884 553.633 728.544 552.952L728.123 551.629C728.68 548.449 734.766 544.975 737.434 543.031L753.222 531.459C776.572 514.482 797.994 495.001 817.107 473.365C821.05 468.871 824.805 464.217 828.362 459.414C830.787 456.082 835.796 448.334 838.563 445.927Z"
     id="path15" />
  <path
     fill="#6E0C23"
     d="M869.482 379.776C877.786 380.432 871.243 391.94 869.981 396.651C868.788 401.108 866.827 404.896 862.925 407.536C861.859 407.522 861.081 407.455 860.014 407.375C859.387 406.789 858.91 406.584 858.803 405.818C858.181 401.393 867.22 383.047 869.482 379.776Z"
     id="path16" />
  <path
     fill="#6E0C23"
     d="M614.582 623.47C623.258 627.669 607.347 633.46 604.229 634.412C602.419 632.915 601.853 632.715 602.007 630.306C603.62 627.537 610.597 625.671 614.582 623.47Z"
     id="path17" />
  <path
     fill="#6E0C23"
     d="M611.931 608.375C614.002 608.728 614.944 609.508 615.07 611.495C613.473 615.35 608.273 617.391 604.655 618.993C602.49 617.957 601.936 617.786 601.182 615.453C602.496 612.131 608.346 610.157 611.931 608.375Z"
     id="path18" />
  <path
     fill="#6E0C23"
     d="M589.914 625.883C591.972 626.386 593.408 627.193 593.322 629.429C591.572 633.122 586.51 635.043 582.875 636.344C580.644 635.677 579.723 635.57 579.361 633.13C580.815 630.209 586.804 627.556 589.914 625.883Z"
     id="path19" />
  <path
     fill="#6E0C23"
     d="M636.345 606.411C637.58 607.656 637.499 607.882 637.984 609.546C637.45 613.647 630.036 617.237 626.395 617.917C624.73 616.086 624.519 616.431 624.114 614.377C625.475 611.546 632.84 608.472 636.345 606.411Z"
     id="path20" />
  <path
     fill="#E85558"
     d="M260.989 390.094C262.341 392.108 262.172 404.313 262.2 407.333C256.327 410.736 250.111 413.728 244.372 417.404C200.802 445.421 164.823 483.762 139.628 529.023C137.396 532.941 130.849 545.56 130.776 549.735C130.618 558.796 135.936 578.401 138.406 587.416C134.534 588.927 132.362 589.613 128.311 590.34C126.51 583.361 121.669 555.931 119.218 551.416C118.143 550.575 115.43 549.723 114.653 550.843C110.35 557.039 105.456 562.51 100.471 568.16C94.167 575.411 88.2984 583.771 82.7108 591.58C79.2218 589.111 76.9233 587.404 73.7139 584.613C82.9671 575.104 91.0682 564.679 101.262 555.518C103.753 552.257 115.805 545.157 117.169 542.264C146.556 479.94 199.327 422.238 260.989 390.094Z"
     id="path21" />
  <path
     fill="white"
     d="M563.021 890.772C583.49 889.41 611.362 893.489 628.524 905.466C617.198 920.076 604.212 932.011 587.809 940.683C584.104 942.549 580.279 944.166 576.359 945.525C561.483 950.515 545.148 950.813 530.901 943.729C533.179 939.319 537.583 934.354 540.444 930.032C545.261 922.755 549.717 915.253 554.096 907.736C556.36 903.851 560.501 892.914 563.021 890.772Z"
     id="path22" />
  <path
     fill="#E85558"
     d="M373.257 668.742C375.5 670.31 388.108 684.737 390.16 687.221C387.483 699.582 360.2 819.439 357.722 821.755L356.382 821.418C350.36 819.808 344.426 817.603 337.941 815.913C339.25 809.787 341.721 802.011 343.366 795.736C346.697 782.755 349.961 769.756 353.156 756.74C360.424 727.18 366.445 698.173 373.257 668.742Z"
     id="path23" />
  <path
     fill="white"
     d="M165.917 845.222C168.126 846.467 169.584 852.593 171.413 854.989C210.631 906.373 296.752 934.908 358.087 941.181C357.538 944.43 358.226 948.749 356.215 950.914L354.077 950.973C299.899 946.698 250.715 930.79 204.742 900.779C191.73 892.285 166.51 873.071 161.472 856.762C160.181 852.583 163.492 848.391 165.917 845.222Z"
     id="path24" />
  <path
     fill="#E85558"
     d="M513.133 694.586L513.587 694.863C524.027 719.46 541.251 742.934 561.355 760.308C567.53 765.645 573.807 771.304 580.956 775.293C577.961 778.523 574.874 781.665 571.697 784.715C570.088 786.247 565.454 790.863 563.325 790.806L562.741 789.889C559.433 786.96 553.945 782.967 550.131 779.855C527.552 761.435 511.518 739.118 498.9 712.993C497.771 710.656 494.335 703.389 494.174 701.271C495.404 700.726 498.195 702.533 498.756 702.041C503.511 697.861 507.349 696.157 513.133 694.586Z"
     id="path25" />
  <path
     fill="white"
     d="M674.626 820.259C677.565 821.536 680.665 823.123 683.562 824.541C681.496 836.947 676.519 853.015 671.814 864.796C656.505 903.133 631.266 939.226 592.268 956.127C575.664 963.323 555.224 966.193 538.132 959.521C532.264 956.23 531.767 955.663 529.867 949.212C533.337 950.724 537.771 952.414 541.473 953.067C604.406 964.159 650.878 894.85 668.841 843.338C671.476 835.781 673.026 827.756 674.626 820.259Z"
     id="path26" />
  <path
     fill="white"
     d="M171.777 843.131C190.069 840.857 213.361 851.653 231.564 852.863C232.346 854.196 235.73 858.694 236.897 860.378C242.02 867.773 244.544 872.954 247.379 881.368C245.613 887.556 244.592 893.109 243.375 899.424C242.946 901.443 243.324 901.47 242.068 902.327C241.625 902.259 241.014 902.191 240.635 901.984C217.145 889.157 181.822 868.731 171.777 843.131Z"
     id="path27" />
  <path
     fill="white"
     d="M314.669 878.205C325.614 881.01 352.856 884.412 363.551 884.656C363.505 887.312 363.203 889.829 362.934 892.467C346.493 891.4 337.792 892.593 325.426 904.43C318.182 912.08 315.896 917.91 312.605 927.61L298.438 923.602C303.073 901.335 303.384 898.692 314.669 878.205Z"
     id="path28" />
  <path
     fill="white"
     d="M349.673 897.581C354.509 897.375 357.821 897.289 362.625 897.563C361.565 910.024 359.704 923.434 358.385 936.034C350.937 935.152 343.738 934.011 336.328 932.842C330.839 932.11 323.827 930.199 318.086 929.133C323.972 911.349 330.645 901.982 349.673 897.581Z"
     id="path29" />
  <path
     fill="white"
     d="M600.079 777.231C606.908 782.373 611.413 783.593 618.027 787.823C611.775 804.348 597.695 817.887 581.345 824.347C579.218 824.97 576.842 825.9 574.734 826.665C570.875 821.174 567.988 817.04 564.594 811.245C565.926 810.648 567.251 810.034 568.567 809.402C580.128 803.816 595.741 789.536 600.079 777.231Z"
     id="path30" />
  <path
     fill="white"
     d="M630.333 795.259L634.521 797.481C631.296 821.033 641.07 836.384 661.593 847.111L655.631 861.843L650.164 857.385C641.335 850.181 626.337 842.444 614.96 840.837C617.518 833.869 619.757 826.839 622.23 819.848C625.176 811.517 628.15 803.833 630.333 795.259Z"
     id="path31" />
  <path
     fill="white"
     d="M320.021 826.831C337.98 839.726 345.307 840.989 367.128 844.098C366.795 850.403 366.371 856.703 365.854 862.996L360.746 862.318C343.004 860.554 325.151 854.841 311.994 842.384C313.125 839.083 318.054 831.007 320.021 826.831Z"
     id="path32" />
  <path
     fill="white"
     d="M613.545 845.297C631.144 850.285 638.739 855.807 653.286 866.416C650.709 871.635 648.436 875.725 645.521 880.719C644.681 881.596 645.186 881.381 644.036 881.431C638.625 876.53 632.428 872.575 625.704 869.732C621.737 868.075 608.502 864.982 607.778 864.005C608.408 859.751 612.096 852.28 613.36 846.216L613.545 845.297Z"
     id="path33" />
  <path
     fill="white"
     d="M307.013 878.312C307.689 879.253 305.25 883.263 304.67 884.372C298.539 896.09 294.819 908.875 292.91 921.937C288.275 920.568 284.168 919.119 279.635 917.5L274.791 915.822C277.333 900.531 279.994 893.778 286.962 880.035C293.648 879.372 300.302 878.645 307.013 878.312Z"
     id="path34" />
  <path
     fill="#E85558"
     d="M305.89 846.678C309.633 845.961 311.018 849.652 313.969 852.036C328.131 863.476 347.338 867.308 364.986 869.124C364.892 872.282 365.214 876.002 364.047 878.67C362.553 879.628 362.789 879.28 360.583 879.148C345.607 878.172 333.953 875.419 319.434 873.32C314.559 864.177 307.37 854.141 299.355 847.556C301.5 847.35 303.746 846.984 305.89 846.678Z"
     id="path35" />
  <path
     fill="white"
     d="M605.877 869.77C618.639 871.458 632.463 877.494 641.816 886.517C639.831 889.894 636.372 894.625 634.083 897.967L632.005 900.584C630.835 900.76 626.948 897.8 624.882 896.822C616.592 892.899 608.554 890.52 599.806 887.988C602.975 880.59 604.222 877.566 605.877 869.77Z"
     id="path36" />
  <path
     fill="white"
     d="M273.941 880.796L280.836 880.322C275.026 890.225 271.162 902.56 269.865 913.966C266.233 912.864 261.769 910.921 258.173 909.472C254.965 908.189 251.403 906.512 248.21 905.095C249.312 897.841 251.042 889.087 252.681 881.946C259.766 881.363 266.624 881.512 273.941 880.796Z"
     id="path37" />
  <path
     fill="white"
     d="M639.599 800.843C649.649 806.003 659.664 811.715 669.677 817.05C668.028 823.66 666.677 830.385 664.98 837.117L663.368 842.135C646.117 831.558 638.828 821.774 639.599 800.843Z"
     id="path38" />
  <path
     fill="white"
     d="M247.439 851.211C249.318 851.044 251.95 851.079 253.895 851.044C263.325 860.459 266.334 864.066 273.508 875.263L262.378 876.086C259.588 876.145 254.377 876.833 251.426 877.13C248.65 867.573 243.476 859.77 237.632 851.906C240.592 851.541 244.403 851.4 247.439 851.211Z"
     id="path39" />
  <path
     fill="#E85558"
     d="M624.647 792.203C624.91 792.429 625.197 792.908 625.413 793.219C620.83 804.589 615.457 821.739 611.655 833.63C600.496 832.099 587.336 834.083 576.819 838.002L576.142 837.833C575.75 836.048 575.924 835.854 576.291 834.089C577.553 832.932 582.311 832.028 584.578 831.216C598.164 826.349 610.077 817.331 617.998 805.231C620.03 802.128 622.958 795.694 624.647 792.203Z"
     id="path40" />
  <path
     fill="white"
     d="M588.383 872.226C591.961 872.144 595.929 872.404 599.541 872.564C597.842 876.958 596.367 882.334 594.991 886.905C588.84 885.854 584.334 885.506 578.125 885.402L564.101 885.541C565.057 881.895 566.227 878.181 567.317 874.56C574.466 873.559 581.19 872.721 588.383 872.226Z"
     id="path41" />
  <path
     fill="white"
     d="M330.953 819.418C332.707 819.227 342.082 823.218 345.005 824.075C352.786 826.356 360.309 828.047 368.18 829.866C368.138 832.391 368.386 835.71 367.331 837.841C365.818 838.909 366.211 838.546 363.804 838.323C350.542 836.844 334.414 832.415 324.759 822.669C326.866 821.282 328.689 820.491 330.953 819.418Z"
     id="path42" />
  <path
     fill="white"
     d="M267.301 849.72L273.578 849.492C283.151 857.858 286.447 863.028 293.049 873.708L287.116 874.396L279.325 874.957C272.539 862.849 271.233 860.469 261.91 850.442C262.898 849.792 265.86 849.824 267.301 849.72Z"
     id="path43" />
  <path
     fill="white"
     d="M291.68 848.246L292.059 848.203C297.081 851.587 307.947 866.4 311.93 872.012C308.739 872.4 305.332 872.683 302.115 873.007C301.473 873.046 298.755 873.298 298.425 872.705C293.108 863.131 289.391 856.177 280.785 849.11L291.68 848.246Z"
     id="path44" />
  <path
     fill="white"
     d="M591.353 773.202C593.222 773.622 593.736 773.707 594.465 775.326C593.585 784.661 572.373 802.552 563.795 805.551C563.147 805.645 562.478 805.648 561.817 805.678C560.551 804.573 560.94 805.245 560.623 803.584C561.668 799.678 568.779 795.972 571.991 793.233C579.019 787.239 586.001 780.77 591.353 773.202Z"
     id="path45" />
  <path
     fill="white"
     d="M597.991 838.825C598.209 838.892 608.84 838.805 609.973 838.8L607.544 846.703C599.968 845.366 592.15 846.161 584.595 847.162C581.134 847.495 576.385 849.022 572.913 850.011C573.339 847.773 573.788 845.541 574.26 843.313C582.88 840.708 589.04 839.941 597.991 838.825Z"
     id="path46" />
  <path
     fill="white"
     d="M590.373 861.217C595.122 860.841 598.05 861.253 602.678 861.994L601.072 867.627C593.273 866.655 587.248 866.827 579.482 867.628C577.523 868.008 575.562 868.377 573.599 868.733C571.767 869.062 570.061 869.589 568.587 868.564C568.845 866.614 568.806 866.639 569.622 864.874C574.576 862.689 584.888 861.627 590.373 861.217Z"
     id="path47" />
  <path
     fill="white"
     d="M591.618 851.194C595.942 850.678 602.101 850.967 606.429 851.196L604.784 856.925C598.306 855.616 591.896 855.981 585.382 856.58C581.181 857.089 574.902 859.18 571.655 859.172L570.726 858.172C570.398 853.039 587.754 851.685 591.618 851.194Z"
     id="path48" />
  <path
     fill="#E85558"
     d="M845.812 675.247C848.452 676.265 850.195 677.585 852.539 679.144C847.852 684.315 841.399 689.831 835.908 694.161L829.762 698.099C834.957 691.495 840.939 682.302 845.812 675.247Z"
     id="path49" />
  <path
     fill="white"
     d="M104.857 581.422C104.815 584.257 97.5714 597.029 94.6654 597.99C93.8249 597.033 93.8054 597.117 93.5004 595.898C97.3141 591.095 101.1 586.269 104.857 581.422Z"
     id="path50" />
  <path
     fill="#6E0C23"
     d="M822.976 66.5948C823.807 66.5496 824.638 66.5142 825.47 66.4887C847.728 65.8422 849.349 87.5244 849.411 103.987C854.746 100.217 861.143 95.4801 866.746 92.3023C881.79 83.9031 899.114 80.5048 916.216 82.5985C930.778 84.4534 956.104 96.2325 953.091 114.283C949.383 136.506 925.565 157.131 908.239 170.273C918.562 167.773 926.308 167.802 937.108 168.539C963.692 170.354 984.051 190.169 957.453 211.972C950.714 217.496 930.484 226.148 921.235 224.764C919.648 223.469 920.155 224.261 919.614 222.328C920.074 221.135 920.732 220.15 921.988 219.806C933.936 216.527 945.631 214.668 955.43 206.269C961.89 200.733 963.188 196.837 963.851 188.536C953.757 168.5 910.873 172.69 894.661 179.815C887.585 182.925 882.59 189.141 873.544 191.268C872.404 190.093 871.962 189.309 871.984 187.698C872.013 185.699 878.351 183.064 879.934 182.122C894.334 173.546 908.305 163.774 920.837 152.621C930.235 143.87 947.184 125.831 947.361 112.053C947.579 95.0487 919.324 87.3903 906.056 87.7532C882.371 88.401 863.595 98.3117 847.283 114.605C845.771 121.077 839.724 144.572 831.713 145.005C822.305 138.407 839.004 117.557 841.6 111.362C844.704 103.953 844.258 90.2302 841.283 82.7308C836.778 71.372 826.653 70.4477 816.616 75.2324C798.364 84.2726 790.44 107.839 788.702 126.875C788.437 129.767 788.198 140.94 787.549 142.772C786.153 144.061 786.961 143.652 784.987 143.931C784.123 143.474 782.984 142.82 782.872 141.676C781.368 125.058 785.361 105.861 793.158 91.1259C800.017 78.1647 809.069 70.6364 822.976 66.5948Z"
     id="path51" />
  <path
     fill="#6E0C23"
     d="M287.384 87.6957C311.667 89.4026 334.458 105.143 347.126 125.999C347.727 126.989 347.104 127.88 346.602 128.634C346.027 128.839 343.936 129.538 343.33 128.945C339.229 124.702 336.573 121.129 332.456 116.625C317.359 100.109 278.752 78.9022 265.974 109.611C261.819 119.598 265.112 135.94 269.921 146.029C279.083 149.354 290.861 155.919 297.113 163.77C302.69 170.773 296.851 178.789 288.63 175.992C278.113 172.413 269.812 160.237 264.846 150.751L260.454 149.84C239.912 145.625 220.967 143.17 202.471 155.365C173.501 176.622 206.717 213.582 229.088 222.275C232.373 223.552 250.352 230.211 250.974 231.068C250.839 233.283 251.216 232.366 250.095 234.019C248.864 234.64 247.918 235.001 246.504 234.618C225.11 228.668 204.224 217.082 192.005 198.043C181.185 181.183 184.209 158.795 202.188 148.341C219.984 137.994 242.65 139.066 262.056 143.97C253.882 120.074 256.732 90.652 287.384 87.6957Z"
     id="path52" />
</svg>
